<svg width="27" height="31" viewBox="0 0 27 31" fill="none" xmlns="http://www.w3.org/2000/svg">
<path d="M26.5517 9.07583C26.5517 10.5775 25.228 11.5786 23.7389 11.2032C23.408 11.1198 23.077 10.9946 22.7048 10.9529C21.6706 10.7444 21.0915 11.1615 20.8019 12.1626C20.7606 12.3712 20.7192 12.5798 20.5951 12.7883C20.2642 13.5392 19.4369 13.8312 18.6923 13.5392C17.9477 13.2472 17.5755 12.4546 17.8236 11.6621C18.0718 10.9112 18.775 10.4941 19.561 10.6609C19.7678 10.7027 19.9746 10.7861 20.1815 10.7861C21.0088 10.9112 21.6293 10.5358 21.9602 9.74324C22.0843 9.40954 22.1256 9.07583 22.167 8.74212C22.3325 7.53243 23.2839 6.73987 24.5662 6.86501C25.6417 6.94844 26.5104 7.94956 26.5104 9.07583H26.5517Z" fill="#297CEE"/>
<path d="M0.450195 9.11759C0.450195 7.94961 1.2775 6.9902 2.353 6.86506C3.51123 6.73992 4.504 7.40734 4.79356 8.57532C4.87629 8.90902 4.91765 9.20102 5.00038 9.53473C5.24857 10.4941 5.91042 10.9113 6.86182 10.7861C7.15138 10.7444 7.4823 10.661 7.77186 10.661C8.5578 10.661 9.17828 11.1616 9.30238 11.9958C9.38511 12.705 8.88872 13.4141 8.14415 13.6226C7.44094 13.8312 6.69636 13.4141 6.4068 12.6632C6.32407 12.4964 6.28271 12.2878 6.24134 12.0792C5.86905 11.0364 5.12448 10.6193 4.09034 10.953C3.59396 11.0781 3.13894 11.2867 2.60119 11.2867C1.4016 11.245 0.450195 10.2856 0.450195 9.11759Z" fill="#297CEE"/>
<path d="M0.450195 21.9237C0.450195 20.422 1.77389 19.4209 3.26304 19.7963C3.46986 19.838 3.71806 19.9214 3.92488 20.0049C5.12448 20.3803 5.86905 19.9631 6.24134 18.7534C6.28271 18.5449 6.36544 18.3363 6.44817 18.1277C6.77909 17.4603 7.52367 17.1683 8.18551 17.3769C8.84736 17.5855 9.30237 18.3363 9.21964 19.0037C9.09555 19.7546 8.51643 20.2968 7.77186 20.2968C7.44093 20.2968 7.15138 20.2134 6.82046 20.13C5.95178 19.9631 5.24857 20.3803 4.95902 21.2563C4.83492 21.6317 4.79355 22.0071 4.71082 22.3825C4.42127 23.5088 3.4285 24.1762 2.353 24.0511C1.31887 23.9676 0.450195 23.0082 0.450195 21.9237Z" fill="#297CEE"/>
<path d="M26.5516 21.8819C26.5516 23.0081 25.7243 23.9675 24.6488 24.0927C23.5733 24.2178 22.5392 23.5504 22.2496 22.5076C22.1669 22.1739 22.1255 21.7984 22.0428 21.4647C21.7946 20.4219 21.0914 19.963 20.0573 20.2133C19.5195 20.3385 19.0231 20.4219 18.4854 20.1299C17.9476 19.7962 17.6581 19.2122 17.7822 18.5448C17.9063 17.9608 18.4026 17.4602 18.9818 17.3768C19.6436 17.2934 20.2227 17.5854 20.5123 18.1694C20.6364 18.4196 20.6777 18.6699 20.7605 18.9202C21.0914 20.0048 21.8773 20.3802 22.9528 20.0882C23.2424 20.0048 23.5733 19.8796 23.8629 19.7962C25.2279 19.5042 26.5103 20.547 26.5103 21.9653L26.5516 21.8819Z" fill="#297CEE"/>
<path d="M13.5625 0.649902C14.4312 0.649902 15.1344 1.15046 15.5067 2.06816C15.8376 2.86072 15.6308 3.82013 15.0103 4.40412C14.7621 4.6544 14.4726 4.90468 14.183 5.15496C13.5625 5.78066 13.5625 6.61493 14.1003 7.28235C14.2657 7.49091 14.4312 7.65777 14.5967 7.82462C15.1344 8.45032 15.1344 9.28459 14.5553 9.86858C14.0176 10.4526 13.1075 10.4526 12.5284 9.9103C11.9493 9.36802 11.8666 8.49204 12.4043 7.86634C12.5698 7.65777 12.7766 7.4492 12.9421 7.24063C13.4798 6.57322 13.4384 5.73895 12.8593 5.11325C12.5698 4.82125 12.2802 4.57097 11.9907 4.27898C11.3702 3.61156 11.2461 2.819 11.577 1.98473C11.9079 1.19218 12.6939 0.649902 13.5625 0.649902Z" fill="#297CEE"/>
<path d="M13.729 30.3499C12.6948 30.3499 11.8675 29.8077 11.578 29.0568C11.247 28.1808 11.3298 27.3883 11.9503 26.6791C12.1984 26.3872 12.5294 26.1369 12.7776 25.8866C13.4394 25.2192 13.4394 24.3015 12.8189 23.5924C12.6948 23.4255 12.5294 23.3004 12.3639 23.1335C11.8262 22.5078 11.8675 21.6318 12.4466 21.0895C12.943 20.589 13.8944 20.5473 14.3908 21.0061C15.0527 21.6318 15.1354 22.4244 14.5976 23.0918C14.4322 23.3004 14.2254 23.5089 14.0599 23.7175C13.4808 24.4266 13.5221 25.2192 14.1426 25.8449C14.4322 26.1369 14.7631 26.3872 15.0527 26.7209C15.6731 27.43 15.7559 28.2225 15.4249 29.0568C15.094 29.8911 14.4322 30.3082 13.729 30.3499Z" fill="#297CEE"/>
<path d="M19.8092 7.5328C19.8092 8.49221 19.106 9.20134 18.1546 9.20134C17.2446 9.20134 16.5 8.45049 16.5 7.5328C16.5 6.6151 17.2446 5.86426 18.1546 5.86426C19.0647 5.86426 19.8092 6.6151 19.8092 7.5328Z" fill="#126AE3"/>
<path d="M7.19273 7.57451C7.19273 6.6151 7.93731 5.86426 8.80598 5.86426C9.71602 5.86426 10.4606 6.6151 10.4606 7.5328C10.4606 8.45049 9.71602 9.20134 8.80598 9.20134C7.89594 9.20134 7.15137 8.49221 7.15137 7.57451H7.19273Z" fill="#126AE3"/>
<path d="M19.8092 23.4256C19.8092 24.3016 18.9819 25.0941 18.1132 25.0941C17.2446 25.0941 16.5 24.3016 16.5 23.3839C16.5 22.4662 17.2446 21.7153 18.196 21.757C19.106 21.757 19.8092 22.5079 19.8092 23.4256Z" fill="#126AE3"/>
<path d="M8.847 21.7988C9.7984 21.7988 10.5016 22.5497 10.5016 23.4674C10.5016 24.3851 9.71567 25.1359 8.847 25.1359C7.93696 25.1359 7.19238 24.3433 7.19238 23.4257C7.19238 22.508 7.89559 21.7988 8.847 21.7988Z" fill="#126AE3"/>
<path d="M4.29719 13.8315C5.16586 13.8315 5.9518 14.5824 5.9518 15.4167C5.9518 16.2926 5.20723 17.0852 4.33856 17.1269C3.42852 17.1269 2.64258 16.3761 2.64258 15.4584C2.64258 14.5407 3.38715 13.8315 4.29719 13.8315Z" fill="#126AE3"/>
<path d="M21.0498 15.4579C21.0498 14.5402 21.753 13.8311 22.6631 13.8311C23.5731 13.8311 24.3177 14.5819 24.3177 15.4996C24.3177 16.3756 23.5731 17.1264 22.7044 17.1264C21.7944 17.1264 21.0498 16.3756 21.0498 15.4162V15.4579Z" fill="#126AE3"/>
<path d="M12.0743 11.5788C12.0743 12.0377 11.702 12.4131 11.2056 12.4131C10.7092 12.4131 10.3369 12.0377 10.3369 11.5371C10.3369 11.0783 10.7506 10.6611 11.247 10.6611C11.6606 10.6611 12.0743 11.12 12.0743 11.5371V11.5788Z" fill="#0D50AD"/>
<path d="M16.6657 11.5371C16.6657 11.996 16.2934 12.3714 15.8384 12.4131C15.3834 12.4131 14.9697 12.0377 14.9697 11.5788C14.9697 11.12 15.3834 10.6611 15.8384 10.6611C16.2934 10.6611 16.6657 11.0783 16.7071 11.5371H16.6657Z" fill="#0D50AD"/>
<path d="M11.2056 20.2552C10.7092 20.2552 10.3369 19.8798 10.3369 19.4209C10.3369 18.9203 10.7506 18.5449 11.2056 18.5449C11.702 18.5449 12.0743 18.9621 12.0329 19.4209C12.0329 19.9215 11.6606 20.2552 11.1642 20.2552H11.2056Z" fill="#0D50AD"/>
<path d="M15.8384 18.5449C16.2934 18.5449 16.6657 18.9203 16.6657 19.4209C16.6657 19.9215 16.2934 20.2969 15.797 20.2552C15.342 20.2552 14.9697 19.8798 14.9697 19.4209C14.9697 18.9621 15.3834 18.5449 15.8798 18.5449H15.8384Z" fill="#0D50AD"/>
<path d="M18.0304 14.6655C18.5268 14.6655 18.8991 15.0409 18.8991 15.4998C18.8991 15.9586 18.5268 16.3341 18.0718 16.3758C17.5754 16.3758 17.2031 15.9586 17.2031 15.4998C17.2031 15.0827 17.6168 14.7072 18.0718 14.7072L18.0304 14.6655Z" fill="#0D50AD"/>
<path d="M9.79876 15.4581C9.79876 15.9586 9.46784 16.3341 9.01282 16.3341C8.51644 16.3341 8.10278 15.9586 8.10278 15.4998C8.10278 15.0409 8.47507 14.6655 8.97145 14.6655C9.46784 14.6655 9.79876 14.9992 9.79876 15.4998V15.4581Z" fill="#0D50AD"/>
</svg>
