<svg width="30" height="34" viewBox="0 0 30 34" fill="none" xmlns="http://www.w3.org/2000/svg">
<path d="M29.5902 9.99234C29.5902 11.6305 28.1205 12.7227 26.4671 12.3131C26.0997 12.2221 25.7323 12.0856 25.3189 12.0401C24.1707 11.8126 23.5278 12.2676 23.2063 13.3598C23.1603 13.5873 23.1144 13.8148 22.9766 14.0423C22.6092 14.8614 21.6907 15.18 20.864 14.8614C20.0373 14.5429 19.6239 13.6783 19.8995 12.8137C20.175 11.9946 20.9558 11.5395 21.8284 11.7216C22.0581 11.7671 22.2877 11.8581 22.5173 11.8581C23.4359 11.9946 24.1248 11.585 24.4922 10.7204C24.63 10.3564 24.676 9.99234 24.7219 9.6283C24.9056 8.30864 25.9619 7.44403 27.3857 7.58055C28.5798 7.67156 29.5443 8.76369 29.5443 9.99234H29.5902Z" fill="#297CEE"/>
<path d="M0.609863 10.0371C0.609863 8.76295 1.52842 7.71632 2.72254 7.5798C4.00851 7.44329 5.11078 8.17138 5.43227 9.44553C5.52413 9.80958 5.57005 10.1281 5.66191 10.4922C5.93748 11.5388 6.67232 11.9938 7.72865 11.8573C8.05015 11.8118 8.41757 11.7208 8.73906 11.7208C9.61169 11.7208 10.3006 12.2669 10.4384 13.177C10.5302 13.9506 9.97911 14.7242 9.15241 14.9517C8.37164 15.1792 7.54494 14.7242 7.22345 13.9051C7.1316 13.7231 7.08567 13.4955 7.03974 13.268C6.62639 12.1304 5.79969 11.6753 4.6515 12.0394C4.10037 12.1759 3.59516 12.4034 2.9981 12.4034C1.6662 12.3579 0.609863 11.3113 0.609863 10.0371Z" fill="#297CEE"/>
<path d="M0.609863 24.0081C0.609863 22.3699 2.07955 21.2777 3.73295 21.6873C3.96258 21.7328 4.23815 21.8238 4.46779 21.9148C5.79969 22.3244 6.62639 21.8693 7.03974 20.5497C7.08567 20.3221 7.17752 20.0946 7.26938 19.8671C7.6368 19.139 8.4635 18.8204 9.19834 19.048C9.93318 19.2755 10.4384 20.0946 10.3465 20.8227C10.2087 21.6418 9.56576 22.2334 8.73906 22.2334C8.37164 22.2334 8.05015 22.1424 7.68273 22.0513C6.71825 21.8693 5.93747 22.3244 5.61598 23.28C5.4782 23.6895 5.43227 24.0991 5.34041 24.5086C5.01892 25.7373 3.91666 26.4654 2.72254 26.3289C1.57434 26.2379 0.609863 25.1912 0.609863 24.0081Z" fill="#297CEE"/>
<path d="M29.5901 23.9621C29.5901 25.1908 28.6715 26.2374 27.4774 26.3739C26.2833 26.5104 25.1351 25.7824 24.8136 24.6447C24.7218 24.2807 24.6758 23.8711 24.584 23.5071C24.3084 22.3694 23.5276 21.8689 22.3794 22.1419C21.7824 22.2784 21.2313 22.3694 20.6342 22.0509C20.0371 21.6868 19.7156 21.0498 19.8534 20.3217C19.9912 19.6846 20.5423 19.1385 21.1853 19.0475C21.9202 18.9565 22.5632 19.275 22.8847 19.9121C23.0224 20.1852 23.0684 20.4582 23.1602 20.7312C23.5276 21.9144 24.4003 22.3239 25.5944 22.0054C25.9159 21.9144 26.2833 21.7779 26.6048 21.6868C28.1204 21.3683 29.5442 22.5059 29.5442 24.0531L29.5901 23.9621Z" fill="#297CEE"/>
<path d="M15.1689 0.799805C16.1334 0.799805 16.9142 1.34587 17.3275 2.347C17.6949 3.2116 17.4653 4.25823 16.7764 4.89531C16.5008 5.16834 16.1793 5.44138 15.8578 5.71441C15.1689 6.397 15.1689 7.30711 15.766 8.0352C15.9497 8.26273 16.1334 8.44475 16.3171 8.62677C16.9142 9.30936 16.9142 10.2195 16.2712 10.8565C15.6741 11.4936 14.6637 11.4936 14.0207 10.9021C13.3777 10.3105 13.2859 9.35486 13.8829 8.67228C14.0666 8.44475 14.2963 8.21722 14.48 7.98969C15.077 7.2616 15.0311 6.35149 14.3881 5.66891C14.0666 5.35037 13.7451 5.07733 13.4236 4.75879C12.7347 4.0307 12.5969 3.1661 12.9644 2.25598C13.3318 1.39138 14.2044 0.799805 15.1689 0.799805Z" fill="#297CEE"/>
<path d="M15.3525 33.2001C14.2043 33.2001 13.2858 32.6085 12.9643 31.7894C12.5969 30.8338 12.6887 29.9692 13.3776 29.1956C13.6532 28.8771 14.0206 28.604 14.2962 28.331C15.031 27.6029 15.031 26.6018 14.3421 25.8282C14.2043 25.6462 14.0206 25.5097 13.8369 25.3276C13.2399 24.6451 13.2858 23.6894 13.9288 23.0979C14.4799 22.5518 15.5362 22.5063 16.0874 23.0069C16.8222 23.6894 16.9141 24.554 16.317 25.2821C16.1333 25.5097 15.9037 25.7372 15.72 25.9647C15.077 26.7383 15.1229 27.6029 15.8118 28.2855C16.1333 28.604 16.5007 28.8771 16.8222 29.2411C17.5111 30.0147 17.603 30.8793 17.2356 31.7894C16.8681 32.6995 16.1333 33.1546 15.3525 33.2001Z" fill="#297CEE"/>
<path d="M22.1039 8.30851C22.1039 9.35514 21.3231 10.1287 20.2668 10.1287C19.2564 10.1287 18.4297 9.30963 18.4297 8.30851C18.4297 7.30738 19.2564 6.48828 20.2668 6.48828C21.2772 6.48828 22.1039 7.30738 22.1039 8.30851Z" fill="#126AE3"/>
<path d="M8.09622 8.35401C8.09622 7.30738 8.92292 6.48828 9.8874 6.48828C10.8978 6.48828 11.7245 7.30738 11.7245 8.30851C11.7245 9.30963 10.8978 10.1287 9.8874 10.1287C8.87699 10.1287 8.05029 9.35514 8.05029 8.35401H8.09622Z" fill="#126AE3"/>
<path d="M22.1039 25.6463C22.1039 26.6019 21.1853 27.4665 20.2209 27.4665C19.2564 27.4665 18.4297 26.6019 18.4297 25.6007C18.4297 24.5996 19.2564 23.7805 20.3127 23.826C21.3231 23.826 22.1039 24.6451 22.1039 25.6463Z" fill="#126AE3"/>
<path d="M9.9333 23.8711C10.9896 23.8711 11.7704 24.6902 11.7704 25.6913C11.7704 26.6924 10.8978 27.5115 9.9333 27.5115C8.92289 27.5115 8.09619 26.6469 8.09619 25.6458C8.09619 24.6447 8.87696 23.8711 9.9333 23.8711Z" fill="#126AE3"/>
<path d="M4.88105 15.1797C5.84553 15.1797 6.71816 15.9988 6.71816 16.9089C6.71816 17.8645 5.89146 18.7291 4.92698 18.7746C3.91657 18.7746 3.04395 17.9555 3.04395 16.9544C3.04395 15.9533 3.87064 15.1797 4.88105 15.1797Z" fill="#126AE3"/>
<path d="M23.4819 16.9544C23.4819 15.9533 24.2627 15.1797 25.2731 15.1797C26.2835 15.1797 27.1102 15.9988 27.1102 16.9999C27.1102 17.9555 26.2835 18.7746 25.319 18.7746C24.3086 18.7746 23.4819 17.9555 23.4819 16.9089V16.9544Z" fill="#126AE3"/>
<path d="M13.5154 12.7218C13.5154 13.2224 13.102 13.6319 12.5509 13.6319C11.9998 13.6319 11.5864 13.2224 11.5864 12.6763C11.5864 12.1758 12.0457 11.7207 12.5968 11.7207C13.0561 11.7207 13.5154 12.2213 13.5154 12.6763V12.7218Z" fill="#0D50AD"/>
<path d="M18.6135 12.6763C18.6135 13.1769 18.2002 13.5864 17.695 13.6319C17.1897 13.6319 16.7305 13.2224 16.7305 12.7218C16.7305 12.2213 17.1897 11.7207 17.695 11.7207C18.2002 11.7207 18.6135 12.1758 18.6594 12.6763H18.6135Z" fill="#0D50AD"/>
<path d="M12.5509 22.187C11.9998 22.187 11.5864 21.7775 11.5864 21.2769C11.5864 20.7308 12.0457 20.3213 12.5509 20.3213C13.102 20.3213 13.5154 20.7763 13.4695 21.2769C13.4695 21.823 13.0561 22.187 12.505 22.187H12.5509Z" fill="#0D50AD"/>
<path d="M17.695 20.3213C18.2002 20.3213 18.6135 20.7308 18.6135 21.2769C18.6135 21.823 18.2002 22.2325 17.649 22.187C17.1438 22.187 16.7305 21.7775 16.7305 21.2769C16.7305 20.7763 17.1897 20.3213 17.7409 20.3213H17.695Z" fill="#0D50AD"/>
<path d="M20.129 16.0898C20.6801 16.0898 21.0935 16.4994 21.0935 17C21.0935 17.5005 20.6801 17.9101 20.1749 17.9556C19.6238 17.9556 19.2104 17.5005 19.2104 17C19.2104 16.5449 19.6697 16.1353 20.1749 16.1353L20.129 16.0898Z" fill="#0D50AD"/>
<path d="M10.9895 16.9545C10.9895 17.5005 10.6221 17.9101 10.1169 17.9101C9.56572 17.9101 9.10645 17.5005 9.10645 17C9.10645 16.4994 9.51979 16.0898 10.0709 16.0898C10.6221 16.0898 10.9895 16.4539 10.9895 17V16.9545Z" fill="#0D50AD"/>
</svg>
