<svg width="57" height="56" viewBox="0 0 57 56" fill="none" xmlns="http://www.w3.org/2000/svg">
<g clip-path="url(#clip0_890_8845)">
<path d="M56.4891 22.8282C56.317 20.4859 54.6148 18.6662 52.3396 18.3911C50.1259 18.1236 47.9536 19.5299 47.2961 21.7032C47.1793 22.0889 47.0395 22.2027 46.6416 22.1996C44.1129 22.1796 41.5842 22.1812 39.0555 22.1981C38.6653 22.2011 38.527 22.1135 38.5393 21.697C38.5701 20.6627 38.5716 19.6268 38.5393 18.5924C38.5255 18.1498 38.6653 18.0514 39.0893 18.056C41.2724 18.0775 43.4569 18.0529 45.64 18.076C46.0778 18.0806 46.1807 17.9577 46.1777 17.5304C46.1561 15.0006 46.1746 12.4708 46.1592 9.94096C46.1561 9.53675 46.2391 9.36307 46.6815 9.25702C48.9306 8.71909 50.4946 6.4229 50.1812 4.19895C49.8263 1.69681 47.8061 -0.0691386 45.3788 0.00156074C43.0682 0.0691862 41.1771 1.76904 40.8268 4.09597C40.4996 6.26306 41.8438 8.42554 44.0008 9.16634C44.3111 9.27239 44.454 9.38152 44.4509 9.74577C44.4294 11.7776 44.4278 13.8094 44.4509 15.8397C44.4555 16.2686 44.3003 16.3346 43.924 16.33C42.2003 16.3116 40.4766 16.3116 38.7513 16.33C38.4149 16.3331 38.249 16.2301 38.1123 15.9243C37.8926 15.4294 37.55 15.0036 37.0999 14.6978C36.808 14.4995 36.7358 14.2675 36.7404 13.9324C36.7573 12.898 36.7987 11.8606 36.6405 10.8339C36.0552 7.03922 32.786 4.09136 28.9561 3.89463C25.074 3.69483 21.5789 6.22156 20.5543 9.9425C20.1871 11.2781 20.2531 12.6383 20.2562 13.9954C20.2562 14.2874 20.1978 14.4934 19.9397 14.6655C19.4528 14.9914 19.0917 15.4432 18.8505 15.9735C18.7307 16.2363 18.5894 16.3316 18.2959 16.33C16.5338 16.3147 14.7717 16.31 13.0096 16.3331C12.6179 16.3377 12.5349 16.2132 12.538 15.8474C12.5549 13.8156 12.5564 11.7838 12.5365 9.75346C12.5334 9.39688 12.6594 9.27393 12.9774 9.16942C14.8808 8.53466 16.1513 6.76564 16.1636 4.77376C16.179 2.38997 14.3139 0.312023 11.965 0.0968511C9.53154 -0.126005 7.28859 1.54772 6.89684 3.8808C6.47898 6.3645 7.95226 8.68989 10.3504 9.26778C10.7344 9.36 10.8281 9.5014 10.8251 9.87026C10.8097 12.4001 10.8297 14.9299 10.8051 17.4597C10.8005 17.9254 10.9004 18.0745 11.3904 18.0683C13.5351 18.0406 15.6812 18.0698 17.8274 18.0453C18.3205 18.0391 18.5325 18.1206 18.5018 18.6846C18.448 19.679 18.468 20.678 18.4957 21.674C18.5064 22.0674 18.4142 22.1904 17.9994 22.1873C15.4323 22.1673 12.8652 22.1719 10.2981 22.1827C9.96323 22.1827 9.82497 22.112 9.7205 21.7493C9.0384 19.3747 6.628 17.9223 4.28672 18.4356C1.99461 18.9413 0.410724 20.9286 0.504436 23.1833C0.604293 25.5824 2.31877 27.4314 4.71842 27.7249C6.95522 27.9985 9.08295 26.5707 9.73279 24.3206C9.8265 23.9963 9.93865 23.8979 10.2659 23.8995C12.833 23.9118 15.4001 23.9164 17.9672 23.8964C18.3943 23.8933 18.4695 24.0409 18.4619 24.422C18.4419 25.4564 18.4281 26.4923 18.4726 27.5251C18.551 29.3187 19.7677 30.7004 21.5236 31.057C22.2841 31.2107 23.0522 31.0985 23.8158 31.1385C24.3258 31.1661 25.0017 30.9156 25.2952 31.2476C25.5456 31.5319 25.3781 32.1928 25.3781 32.6877C25.3812 35.8646 25.3797 39.0414 25.3797 42.2183C25.3428 42.2352 25.3059 42.2505 25.2691 42.2675C24.9219 41.7895 24.5808 41.3084 24.2275 40.8366C22.9263 39.1029 20.6833 38.7171 18.998 39.9313C17.3342 41.1301 16.9502 43.3864 18.1684 45.1354C20.5742 48.5889 23.0138 52.0209 25.435 55.4652C25.6854 55.8217 25.9865 56 26.4397 55.9985C31.3634 55.9877 36.2856 55.9923 41.2094 55.9908C42.5382 55.9908 43.6259 55.4636 44.4509 54.4293C45.0239 53.7115 45.5662 52.9692 46.1101 52.2284C46.6001 51.5629 46.872 50.8052 46.8767 49.9829C46.8936 47.2425 46.9043 44.5022 46.8767 41.7618C46.8613 40.2648 45.7997 38.9984 44.3526 38.6556C43.7888 38.5219 43.208 38.5604 42.635 38.5834C42.3093 38.5972 42.1787 38.4897 42.0712 38.1853C41.6103 36.8759 40.6609 36.1074 39.2998 35.9137C38.6607 35.8215 38.0001 35.8569 37.3503 35.8692C36.98 35.8769 36.7388 35.8031 36.5099 35.4557C35.9845 34.6581 35.2118 34.1862 34.2639 33.9941C33.7477 33.8896 33.2331 33.9034 32.72 33.9219C32.3405 33.9357 32.17 33.8604 32.1961 33.43C32.2345 32.8199 32.2253 32.2036 32.1992 31.5919C32.1853 31.2507 32.2621 31.1154 32.6355 31.1339C33.2853 31.1661 33.9382 31.1446 34.5896 31.1415C36.9324 31.1323 38.5148 29.5723 38.547 27.2285C38.5608 26.2894 38.567 25.3503 38.5409 24.4113C38.5301 24.024 38.6177 23.8872 39.0371 23.8902C41.5842 23.9102 44.1329 23.9102 46.68 23.8902C47.0672 23.8872 47.1762 24.024 47.2776 24.379C47.9812 26.8489 50.5422 28.289 52.9941 27.6235C55.1633 27.0348 56.6488 24.9953 56.4891 22.8251V22.8282ZM42.5505 4.78452C42.5398 3.15075 43.8625 1.81361 45.4894 1.81208C47.1378 1.81208 48.4314 3.11387 48.4237 4.76762C48.416 6.40907 47.1025 7.69395 45.4464 7.68012C43.8763 7.66783 42.5613 6.3522 42.5505 4.78299V4.78452ZM8.54065 4.75378C8.55755 3.10465 9.86952 1.80286 11.5087 1.81208C13.1203 1.8213 14.4138 3.12309 14.4215 4.74149C14.4292 6.37218 13.1064 7.68473 11.4611 7.68166C9.86184 7.67858 8.52529 6.33837 8.54065 4.75378ZM5.24536 26.0097C3.59233 25.9928 2.28497 24.6787 2.2988 23.0495C2.31262 21.4496 3.63688 20.134 5.23767 20.1278C6.8569 20.1232 8.17041 21.4527 8.17041 23.1003C8.17041 24.7094 6.84615 26.0266 5.24536 26.0097ZM22.7035 9.25088C24.0308 6.61502 26.9866 5.17644 29.8533 5.80966C32.7937 6.45979 34.883 8.95425 34.9537 11.9298C34.9691 12.5722 35.2287 13.4083 34.8431 13.7987C34.5358 14.1091 33.6863 13.8924 33.0779 13.894C31.5462 13.8986 30.0161 13.8955 28.4845 13.8955C26.5319 13.8955 24.5793 13.8709 22.6282 13.9109C22.0951 13.9216 22.0214 13.751 22.0214 13.2761C22.0245 11.8913 22.0567 10.5311 22.702 9.24934L22.7035 9.25088ZM32.2253 36.0521C32.2191 35.7831 32.3052 35.6663 32.5848 35.6832C32.8705 35.7001 33.1593 35.6832 33.4466 35.6893C34.7279 35.7201 35.4714 36.4624 35.4837 37.7412C35.4945 38.8139 35.496 39.8883 35.4806 40.9611C35.476 41.2761 35.5083 41.4329 35.9 41.4344C37.2166 41.4421 37.2304 41.4606 37.212 40.1265C37.2012 39.3104 37.3042 38.4881 37.1214 37.6182C37.6929 37.6182 38.2474 37.5998 38.802 37.6228C39.8559 37.6643 40.5472 38.3744 40.5595 39.4272C40.5718 40.6152 40.5764 41.8033 40.5549 42.9914C40.5488 43.3418 40.6394 43.4401 40.9989 43.4401C42.2878 43.4401 42.2878 43.4555 42.2878 42.1737C42.2878 41.6757 42.3078 41.1762 42.2801 40.6798C42.2632 40.3632 42.3846 40.2679 42.6734 40.3109C42.6919 40.314 42.7118 40.3109 42.7303 40.3109C44.7551 40.2771 45.1591 40.6721 45.1591 42.6886C45.1591 44.9694 45.1499 47.2502 45.1653 49.531C45.1699 50.2718 44.9763 50.9174 44.5108 51.4983C44.0561 52.0655 43.6336 52.6587 43.1973 53.2412C42.6811 53.9328 42.0036 54.2756 41.1295 54.274C36.4546 54.2664 31.7813 54.2664 27.1064 54.2787C26.7761 54.2787 26.5949 54.1665 26.4136 53.9052C24.1722 50.6853 21.9169 47.4762 19.6724 44.2593C18.9243 43.1881 19.0871 42.0016 20.0534 41.3238C20.9921 40.6644 22.1535 40.9103 22.9047 41.9401C23.7512 43.1005 24.587 44.2655 25.4227 45.4336C25.6992 45.8209 26.0295 46.0975 26.5319 45.9208C27.025 45.7471 27.1249 45.3383 27.1249 44.8572C27.1187 38.9354 27.1203 33.0135 27.1218 27.0917C27.1218 26.2295 27.5397 25.6255 28.2894 25.378C28.9715 25.1521 29.692 25.3734 30.1421 25.939C30.4478 26.3232 30.4985 26.7674 30.497 27.2377C30.4924 30.9371 30.5062 34.635 30.4801 38.3344C30.477 38.8585 30.6276 38.9707 31.1207 38.9538C32.2268 38.9169 32.2283 38.9431 32.2283 37.8395C32.2283 37.2447 32.2376 36.6515 32.2237 36.0567L32.2253 36.0521ZM36.8141 27.167C36.811 28.6332 36.0076 29.4156 34.5281 29.4202C33.9152 29.4217 33.3007 29.3925 32.6908 29.4309C32.2668 29.457 32.1777 29.3003 32.1976 28.9114C32.2299 28.3197 32.2176 27.7234 32.2022 27.1301C32.1531 25.2428 30.626 23.7658 28.7518 23.7857C26.9052 23.8057 25.4181 25.2873 25.3812 27.1532C25.3689 27.7664 25.3551 28.3812 25.3874 28.9914C25.4073 29.3633 25.2721 29.4371 24.9326 29.4294C24.0339 29.4079 23.1321 29.4325 22.2334 29.4186C21.0336 29.3986 20.2009 28.5625 20.1917 27.3299C20.1748 25.0691 20.1856 22.8082 20.1856 20.5474C20.1856 19.6083 20.1748 18.6693 20.1902 17.7317C20.2117 16.4499 21.0489 15.6215 22.3302 15.6154C24.398 15.6061 26.4658 15.6123 28.5352 15.6123C30.5461 15.6123 32.5571 15.6092 34.5665 15.6123C35.9922 15.6154 36.8095 16.4238 36.8126 17.8562C36.8203 20.9593 36.8187 24.0639 36.8126 27.167H36.8141ZM51.6975 26.022C50.1074 26.0082 48.8231 24.6741 48.8354 23.048C48.8477 21.4388 50.1566 20.1432 51.7681 20.1463C53.392 20.1493 54.7162 21.488 54.7055 23.1156C54.6947 24.7263 53.3382 26.0374 51.6975 26.022Z" fill="#414141"/>
</g>
<defs>
<clipPath id="clip0_890_8845">
<rect width="56" height="56" fill="white" transform="translate(0.5)"/>
</clipPath>
</defs>
</svg>
