<svg width="53" height="43" viewBox="0 0 53 43" fill="none" xmlns="http://www.w3.org/2000/svg">
<g clip-path="url(#clip0_890_8760)">
<path d="M51.7779 41.3709C50.5151 41.3709 49.2523 41.3582 47.9895 41.3788C47.637 41.3851 47.5258 41.2868 47.5367 40.9251C47.5618 40.0921 47.5555 39.2592 47.5399 38.4262C47.5336 38.1327 47.6088 37.9868 47.9222 38.0249C48.0726 38.0439 48.2292 38.0169 48.3812 38.0296C50.7924 38.2184 52.4955 36.2797 52.4798 33.8824C52.4187 23.9618 52.4548 14.0395 52.4548 4.11732C52.4548 1.5265 50.9523 0.00183198 48.3953 0.00183198C41.7351 0.00183198 35.0764 0.00183198 28.4161 0.00183198C20.4163 0.000245439 12.4181 -0.0013411 4.41824 0.00183198C2.18249 0.00341852 0.549934 1.59155 0.549934 3.78256C0.543667 13.9555 0.5421 24.1299 0.553068 34.3028C0.554634 35.8338 1.29571 36.946 2.62588 37.6599C3.36695 38.0582 4.17383 38.0582 4.97757 38.0185C5.34889 37.9995 5.48049 38.1026 5.46483 38.4961C5.43506 39.2703 5.42253 40.0477 5.46796 40.8203C5.49616 41.3106 5.30972 41.3867 4.88356 41.3788C3.56436 41.3534 2.24359 41.3645 0.92282 41.3725C0.358791 41.3756 -0.00156166 41.7072 5.08845e-06 42.1816C0.00313859 42.656 0.363491 42.9733 0.930654 42.9955C1.0842 43.0018 1.23617 42.9955 1.38971 42.9955C9.75302 42.9955 18.1148 42.9955 26.4781 42.9955C34.9166 42.9955 43.3567 42.9955 51.7952 42.9955C52.602 42.9955 53.0078 42.7163 53 42.1673C52.9937 41.6247 52.6021 41.3677 51.7779 41.3677V41.3709ZM11.912 41.3788C10.4393 41.3614 8.96494 41.3582 7.4922 41.3804C7.12245 41.3867 7.05038 41.2598 7.05508 40.9171C7.07231 39.4448 7.06291 37.9725 7.06291 36.5002C7.06291 35.0279 7.07388 33.5556 7.05508 32.0833C7.05038 31.7342 7.13342 31.6184 7.4969 31.6248C8.96965 31.647 10.444 31.6438 11.9167 31.6248C12.2551 31.62 12.3303 31.7422 12.3288 32.0579C12.3194 35.0231 12.3194 37.9868 12.3288 40.952C12.3288 41.2741 12.2442 41.3836 11.912 41.3804V41.3788ZM16.559 41.2551C16.2519 41.6168 15.5202 41.355 14.975 41.3661C13.9284 41.3852 13.9284 41.3725 13.9284 40.3222C13.9284 39.6844 13.9347 39.0466 13.9253 38.4104C13.9221 38.1629 13.9582 38.0153 14.2621 38.0233C14.9484 38.0423 15.6362 38.0391 16.3224 38.0233C16.5731 38.0185 16.6577 38.1026 16.6498 38.3533C16.6357 38.7975 16.6451 39.2417 16.6451 39.686C16.6342 39.686 16.6248 39.686 16.6138 39.686C16.6138 40.2254 16.8222 40.9457 16.559 41.2551ZM23.5247 31.1535C23.5247 34.3901 23.5185 37.625 23.5341 40.8616C23.5357 41.2535 23.4574 41.3899 23.0406 41.382C21.6055 41.3534 20.1703 41.3598 18.7352 41.3788C18.3764 41.3836 18.2432 41.309 18.2432 40.9076C18.2558 34.3584 18.2558 27.8091 18.2432 21.2599C18.2432 20.9061 18.3278 20.7982 18.6866 20.803C20.103 20.8236 21.5193 20.8331 22.9341 20.7998C23.3978 20.7887 23.5388 20.887 23.5357 21.3884C23.5106 24.644 23.5232 27.8996 23.5232 31.1551L23.5247 31.1535ZM27.7785 41.2551C27.4698 41.6152 26.7413 41.355 26.1945 41.3661C25.1307 41.3852 25.1307 41.3709 25.1307 40.2888C25.1307 39.6701 25.1401 39.0529 25.126 38.4342C25.1197 38.1581 25.1604 38.009 25.491 38.0217C26.1773 38.0455 26.8651 38.0391 27.5513 38.0249C27.8051 38.0201 27.8834 38.1121 27.8756 38.3596C27.8615 38.8038 27.8709 39.2481 27.8709 39.6923C27.8584 39.6923 27.8458 39.6923 27.8317 39.6923C27.8317 40.2301 28.0401 40.9504 27.7769 41.2566L27.7785 41.2551ZM34.2695 41.3788C32.8171 41.3598 31.3632 41.3566 29.9092 41.3788C29.5458 41.3851 29.4659 41.2725 29.469 40.9235C29.4847 39.026 29.4768 37.1285 29.4768 35.231C29.4768 33.3922 29.4894 31.5518 29.4674 29.713C29.4627 29.3021 29.5802 29.1973 29.9766 29.2037C31.4102 29.2275 32.8453 29.2259 34.2789 29.2037C34.6565 29.1989 34.7583 29.31 34.7568 29.6923C34.7427 33.4286 34.7427 37.1665 34.7568 40.9044C34.7583 41.3011 34.6299 41.382 34.2679 41.3772L34.2695 41.3788ZM38.6736 41.3788C38.0266 41.3518 37.3764 41.355 36.7277 41.3788C36.4144 41.3899 36.3376 41.2725 36.3502 40.979C36.3705 40.5364 36.3549 40.0905 36.3549 39.6463H36.394C36.394 39.1275 36.1919 38.4278 36.4457 38.1375C36.745 37.7964 37.4484 38.0391 37.9764 38.0312C39.0716 38.0153 39.0716 38.0264 39.0716 39.1434C39.0716 39.7415 39.0591 40.3412 39.0763 40.9393C39.0857 41.2487 39.0183 41.3915 38.6705 41.3772L38.6736 41.3788ZM45.9481 40.933C45.9481 41.2995 45.8384 41.3836 45.4937 41.3788C44.0586 41.3598 42.6234 41.3487 41.1898 41.3836C40.7277 41.3947 40.6681 41.2233 40.6697 40.8188C40.6838 37.2348 40.6775 33.6508 40.6775 30.0668C40.6775 26.5208 40.6885 22.9765 40.665 19.4306C40.6618 18.9356 40.8044 18.823 41.2729 18.8341C42.6689 18.8658 44.0664 18.8579 45.4624 18.8372C45.8259 18.8325 45.9496 18.915 45.9496 19.3132C45.9371 26.5193 45.9371 33.7269 45.9496 40.933H45.9481ZM46.3131 17.2174C44.2842 17.2174 42.2568 17.2174 40.2279 17.2174C39.3129 17.2174 39.0747 17.4585 39.0747 18.3898C39.0732 24.1839 39.0685 29.9779 39.0841 35.772C39.0841 36.2574 39.0074 36.4653 38.4747 36.4113C37.9247 36.3558 37.3638 36.3717 36.8123 36.4082C36.4222 36.4336 36.3455 36.2892 36.3486 35.9227C36.3643 33.5397 36.358 31.1551 36.3564 28.7722C36.3564 27.8377 36.1167 27.587 35.2111 27.5854C33.1446 27.5822 31.078 27.5822 29.0115 27.5854C28.0997 27.5854 27.874 27.8218 27.874 28.7658C27.874 31.1297 27.8631 33.4937 27.8834 35.8576C27.8866 36.2701 27.8208 36.4462 27.3648 36.4098C26.7946 36.3637 26.2149 36.3637 25.6446 36.4098C25.1886 36.4462 25.1244 36.2701 25.126 35.8576C25.1401 30.8965 25.1354 25.9354 25.1354 20.9759C25.1354 20.6665 25.1385 20.3556 25.1322 20.0462C25.1213 19.5068 24.822 19.2006 24.3128 19.1974C22.0363 19.1799 19.7583 19.1831 17.4818 19.1958C16.9883 19.199 16.7157 19.5036 16.6577 19.9938C16.6373 20.1652 16.6498 20.3429 16.6498 20.5158C16.6498 25.6118 16.6436 30.7093 16.6608 35.8053C16.6624 36.2717 16.5809 36.4558 16.0811 36.4113C15.5108 36.3606 14.9327 36.3749 14.3608 36.4082C13.9911 36.4304 13.9221 36.2924 13.9253 35.9497C13.9425 34.3409 13.9362 32.7337 13.9315 31.125C13.9284 30.2746 13.6668 30.0065 12.8395 30.0049C10.7354 30.0017 8.62966 30.0017 6.52395 30.0049C5.72647 30.0049 5.46326 30.2746 5.46169 31.0853C5.45699 32.6941 5.45073 34.3028 5.46796 35.91C5.47109 36.267 5.40999 36.4574 5.00577 36.405C4.74256 36.3717 4.46994 36.405 4.20359 36.3971C3.0489 36.3653 2.17779 35.4927 2.16525 34.3266C2.14959 32.9511 2.16055 31.5756 2.16055 30.1985C2.16055 21.5359 2.18719 12.875 2.13862 4.21251C2.12765 2.40544 3.25884 1.59789 4.68929 1.60741C11.9606 1.65183 19.2334 1.62804 26.5047 1.62804C33.8152 1.62804 41.124 1.62804 48.4345 1.62804C50.0608 1.62804 50.8551 2.43558 50.8551 4.08876C50.8551 14.011 50.8379 23.9316 50.8692 33.8538C50.8755 36.0084 49.5532 36.5668 47.7843 36.4002C47.6151 36.3844 47.5461 36.3146 47.554 36.148C47.5602 36.0131 47.554 35.8767 47.554 35.7418C47.554 29.9859 47.554 24.2315 47.554 18.4755C47.554 17.4268 47.3487 17.2174 46.3209 17.2174H46.3131Z" fill="#105CC4"/>
<path d="M41.4578 7.49352C40.0885 8.42165 39.5746 10.1526 40.2546 11.682C40.394 11.9945 40.3313 12.1484 40.1136 12.3642C38.1175 14.3442 36.1293 16.3321 34.1521 18.3312C33.9265 18.5596 33.7667 18.6041 33.4721 18.4581C32.5603 18.0091 31.6218 18.0091 30.7115 18.4581C30.4138 18.6041 30.254 18.5549 30.0315 18.3312C28.0511 16.3353 26.0629 14.3474 24.0638 12.3705C23.8194 12.1294 23.8021 11.958 23.94 11.6439C24.5542 10.2255 24.1092 8.5692 22.9028 7.63314C21.7136 6.70977 20.0451 6.71136 18.8543 7.63472C17.6432 8.57554 17.1983 10.224 17.8124 11.6439C17.9456 11.9517 17.9472 12.1262 17.6965 12.3737C15.7099 14.3363 13.7358 16.3099 11.7726 18.2979C11.5141 18.5596 11.3355 18.5882 10.9986 18.4311C9.73741 17.8425 8.30541 18.1408 7.30112 19.1467C6.36264 20.0875 6.07435 21.5519 6.58041 22.7989C7.09901 24.0776 8.31481 24.8995 9.67474 24.8947C12.0781 24.8852 13.6778 22.4435 12.7315 20.1985C12.5952 19.8749 12.6218 19.7004 12.8678 19.4576C14.867 17.4808 16.8536 15.4913 18.8355 13.497C19.0376 13.2939 19.1833 13.2305 19.4654 13.3701C20.3944 13.8333 21.3486 13.8318 22.2792 13.3748C22.5519 13.24 22.7023 13.278 22.9106 13.4875C24.9051 15.496 26.9074 17.4967 28.9207 19.4862C29.1557 19.7178 29.1651 19.8828 29.0382 20.1795C28.4225 21.6106 28.8518 23.259 30.0519 24.1982C31.2395 25.1263 32.9175 25.1359 34.1035 24.2188C35.335 23.2685 35.7658 21.6201 35.1313 20.1652C34.9997 19.8622 35.0404 19.702 35.266 19.4782C37.2636 17.4998 39.2503 15.5103 41.2291 13.5129C41.4484 13.2923 41.602 13.2384 41.9075 13.3812C43.4131 14.0856 45.1334 13.5874 46.0609 12.2135C46.9477 10.8998 46.7801 9.08641 45.6661 7.94569C44.5506 6.80338 42.7614 6.61141 41.4594 7.49511L41.4578 7.49352ZM9.67161 23.2669C8.70336 23.2669 7.90588 22.4546 7.92782 21.4916C7.94819 20.5492 8.7394 19.7622 9.66848 19.7607C10.6195 19.7591 11.4279 20.5872 11.4091 21.5455C11.3903 22.499 10.6148 23.2669 9.67161 23.2669ZM20.8645 12.0802C19.9056 12.0755 19.1301 11.2663 19.1442 10.2842C19.1583 9.32756 19.9291 8.5692 20.8817 8.57396C21.8547 8.57872 22.6192 9.37199 22.602 10.3588C22.5848 11.306 21.7983 12.085 20.8645 12.0802ZM32.1122 23.2669C31.1596 23.278 30.3872 22.5292 30.3621 21.5693C30.3355 20.5904 31.111 19.7702 32.0699 19.7607C33.0177 19.7511 33.8372 20.5714 33.8325 21.5265C33.8278 22.4752 33.0553 23.2558 32.1122 23.2669ZM43.2956 12.0802C42.3462 12.085 41.5393 11.26 41.5503 10.3001C41.5628 9.32598 42.3665 8.55016 43.3395 8.57396C44.2874 8.59617 45.0253 9.37516 45.0143 10.3445C45.0049 11.3012 44.2372 12.077 43.2941 12.0802H43.2956Z" fill="#105CC4"/>
</g>
<defs>
<clipPath id="clip0_890_8760">
<rect width="53" height="43" fill="white"/>
</clipPath>
</defs>
</svg>
