<svg width="49" height="50" viewBox="0 0 49 50" fill="none" xmlns="http://www.w3.org/2000/svg">
<g clip-path="url(#clip0_890_8773)">
<path d="M48.582 33.5763C48.4073 32.5626 48.2993 32.4568 47.2767 32.4353C46.8967 32.4273 46.522 32.367 46.3394 31.9894C46.1487 31.5957 46.334 31.2448 46.574 30.9274C46.6434 30.835 46.73 30.7546 46.8114 30.6716C47.2234 30.2484 47.246 29.9873 46.9047 29.4838C46.2234 28.4794 45.3794 27.6357 44.3901 26.9393C43.5661 26.3594 43.4621 26.3768 42.7621 27.0839C42.4861 27.3625 42.1794 27.6102 41.7514 27.4375C41.3408 27.2714 41.2421 26.8978 41.1941 26.5054C41.1821 26.4063 41.1941 26.3058 41.1914 26.2054C41.1834 25.6054 40.9501 25.3189 40.3501 25.2305C39.8901 25.1635 39.4235 25.0832 38.9635 25.1006C38.5008 25.1193 38.3955 24.972 38.3968 24.5194C38.4115 18.0564 38.4128 11.5935 38.4048 5.13184C38.4008 2.26998 36.4408 0.259848 33.5942 0.254492C24.0357 0.238421 14.4758 0.249135 4.91593 0.245117C4.17328 0.245117 3.45462 0.362966 2.79063 0.695087C0.929321 1.62717 0.0226664 3.15653 0.0226664 5.24031C0.0239997 11.0015 0.0226664 16.7627 0.0226664 22.524C0.0146665 22.524 0.00799989 22.524 0 22.524C0 28.4191 0 34.3129 0 40.208C0 40.5334 0.163998 40.7544 0.387995 40.9781C3.27329 43.864 6.15325 46.7567 9.02388 49.6587C9.25587 49.8931 9.49454 50.0002 9.81053 50.0002C12.0545 49.9935 14.2998 49.9882 16.5438 49.9868C22.1797 49.9855 27.817 49.9908 33.4529 49.9841C36.1448 49.9815 37.9235 48.4293 38.3088 45.7509C38.3461 45.4885 38.4621 45.4644 38.6648 45.4711C39.2315 45.4898 39.7941 45.4215 40.3528 45.3358C41.2861 45.1925 41.3821 45.0639 41.4221 44.1292C41.4394 43.7234 41.4981 43.2815 41.9061 43.0953C42.3328 42.9011 42.7074 43.1409 43.0327 43.4288C43.0821 43.473 43.1261 43.5239 43.1727 43.5707C43.5861 43.9792 43.8607 44.0033 44.3581 43.6806C45.4367 42.9815 46.2967 42.0668 46.998 40.9928C47.4407 40.3165 47.4207 40.121 46.8367 39.5893C46.5154 39.2974 46.2287 38.9626 46.402 38.5046C46.5794 38.0359 47.018 37.9421 47.4727 37.9368C47.5393 37.9368 47.606 37.9434 47.6727 37.9421C48.238 37.9301 48.4687 37.7238 48.5847 37.1587C48.8273 35.9641 48.7913 34.7722 48.586 33.5763H48.582ZM8.99321 47.1169C7.02657 45.1416 5.01993 43.1261 3.04396 41.1414C4.38661 41.1414 5.83192 41.1214 7.2759 41.1481C8.19589 41.1655 8.96521 41.953 8.98521 42.9052C9.01588 44.3394 8.99321 45.7751 8.99321 47.1169ZM36.7595 45.7014C36.5262 47.3098 35.2569 48.4119 33.5795 48.4427C32.7156 48.4588 31.8502 48.4467 30.9862 48.4467C24.3023 48.4467 17.6184 48.4427 10.9345 48.4561C10.5092 48.4561 10.3705 48.3744 10.3799 47.9164C10.4119 46.3134 10.3972 44.7104 10.3905 43.1074C10.3799 40.9098 8.99188 39.5143 6.80791 39.5036C5.24526 39.4969 3.68128 39.4862 2.11997 39.5116C1.69864 39.5183 1.56665 39.4366 1.56798 38.976C1.58665 33.2978 1.57998 27.6196 1.57998 21.9427C1.57998 16.3985 1.61998 10.8542 1.55865 5.30995C1.53731 3.31455 2.96796 1.77046 5.08126 1.77582C14.5411 1.79858 24.0023 1.78385 33.4622 1.78653C35.5728 1.78653 36.8728 3.10296 36.8742 5.23496C36.8782 11.7475 36.8742 18.2613 36.8822 24.7738C36.8822 25.114 36.8222 25.2773 36.4488 25.3323C35.8902 25.4139 35.7008 25.6952 35.7062 26.2657C35.7062 26.2817 35.7075 26.2991 35.7075 26.3152C35.7182 26.7786 35.6995 27.2794 35.2355 27.4937C34.7475 27.72 34.3489 27.404 34.0035 27.0625C33.5342 26.5978 33.2929 26.5777 32.7422 26.942C31.6116 27.6879 30.7262 28.6695 30.0063 29.8119C29.7516 30.2163 29.8009 30.5645 30.1503 30.8792C30.1996 30.9234 30.2569 30.9595 30.3036 31.0064C30.6076 31.301 30.9236 31.6091 30.7449 32.0845C30.5729 32.5398 30.1609 32.6389 29.7263 32.6576C28.7489 32.6978 28.6556 32.7875 28.5009 33.7799C28.3089 35.0173 28.3849 36.2427 28.6396 37.4613C28.7489 37.9823 29.0276 38.1805 29.5609 38.1631C29.5769 38.1631 29.5943 38.1591 29.6103 38.1591C30.0823 38.1497 30.5916 38.1283 30.8089 38.6532C31.0182 39.1608 30.6969 39.5424 30.3636 39.888C29.9036 40.3647 29.8836 40.591 30.2516 41.1548C30.9942 42.2918 31.9756 43.177 33.1102 43.9015C33.5102 44.1573 33.8622 44.1024 34.1729 43.7462C34.1835 43.7341 34.1955 43.7207 34.2062 43.7087C34.5115 43.3364 34.8515 42.9654 35.3808 43.1636C35.8995 43.3578 35.9462 43.856 35.9395 44.3408C35.9328 44.8229 36.0822 45.2113 36.5915 45.3264C36.8622 45.388 36.7808 45.5447 36.7582 45.6987L36.7595 45.7014ZM46.9927 36.157C46.8807 36.5132 46.4594 36.3752 46.1847 36.4837C44.7301 37.0623 44.2234 38.7068 45.1514 40.0353C45.3514 40.3219 45.3154 40.4692 45.114 40.7022C44.7647 41.1066 44.4127 41.5044 44.0087 41.8552C43.9234 41.9289 43.8261 41.9865 43.7421 42.0467C43.6247 41.9691 43.5287 41.9021 43.4301 41.8405C41.8808 40.8977 40.2501 41.5874 39.8875 43.3658C39.8155 43.7181 39.6595 43.8413 39.3381 43.8506C39.1061 43.8573 38.8728 43.8895 38.6408 43.8895C38.3088 43.8895 37.9595 43.9323 37.6488 43.8439C37.2715 43.7368 37.3782 43.2922 37.2488 43.0083C36.5688 41.5191 35.0915 41.0731 33.7489 42.0039C33.5102 42.1686 33.3795 42.1766 33.1635 41.9905C32.7449 41.6329 32.3396 41.2646 31.9742 40.8522C31.8276 40.6861 31.7836 40.5656 31.9182 40.3393C32.9489 38.6023 32.2956 37.1024 30.3223 36.6592C30.1329 36.6163 30.0369 36.5788 30.0089 36.3659C29.9343 35.7847 29.9036 35.2035 29.9436 34.6182C29.9596 34.3865 30.0369 34.2848 30.2889 34.2325C32.1662 33.8482 32.8782 32.0764 31.7916 30.4989C31.6556 30.3007 31.6209 30.1775 31.7916 29.998C31.9862 29.7931 32.1476 29.5561 32.3449 29.3539C32.5889 29.1034 32.8222 28.8168 33.1182 28.6535C33.4649 28.4606 33.6809 28.8771 33.9689 28.9923C35.3915 29.5628 36.7822 28.8195 37.0942 27.2607C37.1608 26.9272 37.2728 26.7987 37.6195 26.7638C38.0848 26.717 38.5488 26.7397 39.0115 26.7116C39.3821 26.6889 39.5075 26.8375 39.5835 27.1897C39.8768 28.5463 40.9394 29.2601 42.2688 29.0271C42.6514 28.9601 43.0034 28.8034 43.2967 28.5517C43.4781 28.3963 43.6034 28.4191 43.7621 28.5664C43.9701 28.7579 44.2021 28.924 44.4034 29.1208C44.6527 29.3659 44.9341 29.6003 45.102 29.8962C45.3007 30.2484 44.8861 30.4667 44.7714 30.7547C44.1981 32.1996 44.954 33.6071 46.5394 33.9111C46.8807 33.9768 46.986 34.1 46.99 34.4147C46.9927 34.6638 47.0527 34.9128 47.0527 35.1619C47.0527 35.4954 47.086 35.8476 46.9887 36.1556L46.9927 36.157Z" fill="#105CC4"/>
<path d="M4.45991 14.4697C5.2359 15.1754 6.03323 15.8584 6.83455 16.5347C7.13454 16.7878 7.55187 16.8441 7.7772 16.532C8.17986 15.979 8.38786 16.3097 8.65052 16.6204C9.1154 17.1704 9.08963 17.6842 8.57319 18.1618C7.29187 19.3484 7.75054 21.4603 9.41585 21.9785C9.65451 22.0522 9.74384 22.1299 9.79717 22.3857C9.97584 23.2414 10.4638 23.8829 11.3092 24.1534C11.6225 24.2538 11.6945 24.4025 11.7531 24.6891C11.9265 25.5341 12.4225 26.1461 13.2465 26.4073C13.5691 26.509 13.6691 26.6604 13.7398 26.9617C14.1318 28.633 15.9784 29.2249 17.2624 28.1067C17.3744 28.0089 17.5077 27.9326 17.6171 27.8322C17.8104 27.6527 17.9331 27.6701 18.1237 27.8804C19.2744 29.158 20.977 28.9316 21.713 27.4023C21.8317 27.1559 21.9463 27.109 22.193 27.1197C23.185 27.1612 24.1036 26.5907 24.4876 25.6747C24.5863 25.439 24.6943 25.356 24.941 25.3185C25.6943 25.206 26.3529 24.898 26.6809 24.1547C26.7956 23.8936 26.9516 23.9284 27.1516 23.9365C28.0783 23.9753 28.7622 23.5521 29.1809 22.7486C29.6036 21.937 29.4956 21.1322 28.9662 20.3929C28.7636 20.109 28.5209 19.8532 28.3049 19.5787C28.2329 19.4863 28.0849 19.4193 28.1983 19.2479C28.6902 18.5007 29.1022 17.6878 29.9036 17.1976C30.0076 17.1333 30.0556 17.0891 30.1836 17.203C30.7489 17.7025 30.9755 17.7092 31.5702 17.282C32.2995 16.7584 33.0249 16.2294 33.7462 15.6937C34.2822 15.296 34.3542 14.8768 33.9875 14.3197C33.3022 13.2765 32.6102 12.2372 31.9209 11.1954C30.5529 9.1263 29.1876 7.0559 27.8169 4.98952C27.3809 4.33198 26.9596 4.26234 26.3196 4.72972C25.581 5.26942 24.841 5.80643 24.105 6.35015C23.7183 6.63539 23.517 7.00233 23.7543 7.47239C23.8556 7.67327 23.8063 7.72952 23.6263 7.78308C23.4197 7.84469 23.2157 7.91432 23.0143 7.992C22.273 8.27591 21.4143 8.3643 20.8024 8.84641C20.237 9.29236 19.7624 9.29236 19.173 9.09416C18.9064 9.00443 18.6277 8.95488 18.3544 8.88524C17.2184 8.59464 16.0824 8.30403 14.9344 8.00941C15.3518 7.21527 15.3118 7.00099 14.6598 6.43184C14.0451 5.89482 13.4318 5.35646 12.8145 4.82346C12.2185 4.30787 11.9171 4.33332 11.4065 4.94265C10.6358 5.86134 9.86917 6.78404 9.10118 7.70541C7.5652 9.54814 6.02656 11.3895 4.49325 13.2336C4.09992 13.7063 4.07325 14.1202 4.46125 14.4737L4.45991 14.4697ZM10.3332 20.4599C10.2665 20.5175 10.1478 20.5148 10.1065 20.5255C9.79184 20.5322 9.60118 20.4144 9.48651 20.188C9.36651 19.951 9.33185 19.6912 9.52918 19.4876C10.0972 18.9051 10.6892 18.344 11.3398 17.8552C11.5705 17.6811 11.8905 17.6248 12.0985 17.9114C12.2918 18.1779 12.5065 18.5194 12.2011 18.8127C11.6038 19.3872 10.9638 19.9175 10.3345 20.4586L10.3332 20.4599ZM12.4611 22.5022C12.2518 22.6803 12.0158 22.7794 11.7318 22.6388C11.4838 22.5156 11.3465 22.3334 11.3478 22.0602C11.3132 21.8071 11.4625 21.6504 11.6265 21.5058C12.3345 20.8804 13.0398 20.251 13.7545 19.6336C14.1451 19.2975 14.5584 19.2961 14.8091 19.6055C15.0558 19.9095 15.0024 20.2858 14.6384 20.6086C13.9185 21.2473 13.1918 21.8768 12.4611 22.5022ZM14.2811 24.756C13.9998 24.9797 13.6678 24.9167 13.4345 24.6449C13.2065 24.3784 13.1638 24.0556 13.4478 23.7972C13.9998 23.295 14.5691 22.8129 15.1384 22.3294C15.2664 22.2209 15.4304 22.1754 15.6918 22.1714C15.8691 22.162 16.0331 22.3133 16.1424 22.537C16.2624 22.7847 16.2558 23.0499 16.0558 23.232C15.4798 23.757 14.8918 24.2712 14.2824 24.756H14.2811ZM16.9677 26.0591C16.8277 26.6296 16.3731 27.1304 15.9398 27.1358C15.6091 27.1519 15.4064 26.951 15.2864 26.6858C15.1771 26.4461 15.2064 26.189 15.4264 26.0042C15.6664 25.8019 15.9038 25.593 16.1678 25.427C16.3971 25.2837 16.6424 25.3439 16.8677 25.4939C17.1064 25.652 17.0224 25.8381 16.9677 26.0604V26.0591ZM25.9196 7.04251C26.2169 6.86306 26.4823 6.63004 26.7583 6.42246C26.8743 6.44255 26.9103 6.54031 26.9636 6.61932C28.7396 9.25754 30.5129 11.8971 32.2969 14.5299C32.4369 14.7362 32.4062 14.8339 32.2115 14.9585C31.8622 15.1835 31.5195 15.6281 31.1902 15.6147C30.8449 15.6 30.6916 15.0214 30.4662 14.684C28.9116 12.3591 27.3756 10.0209 25.8143 7.70005C25.613 7.40007 25.5943 7.23669 25.9196 7.04117V7.04251ZM19.2784 12.1301C19.381 12.0444 19.4944 11.9721 19.5864 11.877C20.9277 10.4802 22.613 9.71286 24.429 9.16781C24.6956 9.08746 24.8263 9.09683 24.9876 9.34458C26.3249 11.3936 27.6783 13.4305 29.0222 15.4741C29.0956 15.5866 29.3182 15.7165 29.0782 15.8732C28.2236 16.4303 27.6143 17.2057 27.1369 18.131C26.0596 17.0008 25.077 15.8999 24.0703 14.7121C24.645 14.6933 25.1463 14.6371 25.6156 14.4282C26.0889 14.2179 26.2809 13.8202 26.1116 13.3836C25.969 13.0153 25.5596 12.8292 25.1076 12.9966C23.921 13.4358 22.929 12.9926 21.9943 12.327C21.3957 11.8998 21.157 11.8824 20.5997 12.3631C20.2717 12.6457 19.937 12.9202 19.621 13.2149C19.0544 13.7425 18.4437 13.8603 17.7104 13.4345C18.2424 12.9912 18.7597 12.56 19.2784 12.1274V12.1301ZM14.0691 9.36199C15.5704 9.75706 17.0784 10.1307 18.6731 10.5338C18.1211 10.9891 17.6237 11.3976 17.1277 11.806C16.7677 12.102 16.3997 12.3899 16.0504 12.6979C15.5904 13.1037 15.5651 13.5269 15.9464 14.0117C17.0477 15.4125 19.2024 15.5598 20.677 14.3344C21.0619 14.0148 21.4255 14.051 21.7677 14.4429C23.6716 16.6285 25.5743 18.814 27.4783 20.9996C27.5116 21.0371 27.5436 21.0759 27.5756 21.1148C27.9716 21.5955 28.0076 21.9384 27.6903 22.2076C27.3076 22.5343 26.9569 22.4446 26.5583 21.9571C25.841 21.0813 25.1143 20.2121 24.381 19.3497C24.045 18.9533 23.645 18.9038 23.2877 19.1836C22.8903 19.4957 22.825 19.9577 23.1637 20.3675C23.8103 21.1509 24.485 21.9116 25.137 22.6897C25.465 23.0807 25.377 23.5414 24.953 23.7182C24.6823 23.8307 24.449 23.7972 24.2463 23.5481C23.6237 22.7888 22.9903 22.0361 22.353 21.2889C21.953 20.8201 21.493 20.7599 21.1064 21.1054C20.717 21.4536 20.7197 21.8995 21.1224 22.3736C21.673 23.0204 22.229 23.6633 22.781 24.3087C23.1463 24.7373 23.177 25.0453 22.8877 25.3118C22.5503 25.6212 22.1797 25.5649 21.8237 25.1498C21.2717 24.5043 20.7237 23.8534 20.1677 23.2119C19.7517 22.7325 19.2624 22.6977 18.7704 23.0995C18.4224 23.3834 18.4357 23.8829 18.8117 24.3409C19.2437 24.8699 19.689 25.3881 20.117 25.9198C20.4504 26.3349 20.4477 26.7434 20.137 26.9818C19.789 27.2469 19.4344 27.1532 19.081 26.734C18.8104 26.4113 18.6077 26.0926 18.5824 25.6359C18.5504 25.0667 18.2304 24.598 17.7917 24.2391C17.6051 24.0851 17.5291 23.9833 17.6317 23.7155C18.0544 22.6093 17.7291 21.6063 16.7424 20.9192C16.5611 20.7934 16.5264 20.6876 16.5451 20.4786C16.7091 18.7578 15.8558 17.8029 14.0891 17.7266C13.9305 17.7199 13.8611 17.6704 13.7825 17.5458C12.9131 16.1664 12.1371 15.8825 10.6625 16.4396C10.4492 16.52 10.3985 16.4155 10.3065 16.3057C9.97184 15.912 9.64918 15.5076 9.29985 15.1286C9.14518 14.9612 9.19052 14.8674 9.31451 14.7188C10.7505 12.9872 12.1811 11.2529 13.6078 9.51332C13.7398 9.35128 13.8518 9.30441 14.0678 9.36066L14.0691 9.36199ZM6.26389 13.6099C8.18653 11.2904 10.1145 8.97363 12.0305 6.64879C12.2118 6.42782 12.3331 6.40505 12.5318 6.61129C12.7958 6.88315 13.2425 7.09474 13.3158 7.40275C13.3851 7.69871 12.9265 7.97057 12.6985 8.24778C10.9572 10.3731 9.19852 12.4823 7.44121 14.5942C7.37187 14.6773 7.32654 14.8005 7.15721 14.8031C6.81321 14.4938 6.45322 14.1751 6.10656 13.8416C6.09456 13.8309 6.20122 13.6836 6.26256 13.6099H6.26389Z" fill="#105CC4"/>
<path d="M25.6063 37.3568C26.049 37.247 26.2703 36.8318 26.1463 36.3899C26.0103 35.9024 25.6356 35.8395 25.209 35.8408C21.8864 35.8449 18.5637 35.8435 15.2411 35.8435C11.9852 35.8435 8.72921 35.8435 5.47325 35.8435C4.61726 35.8435 4.28394 36.0631 4.28394 36.6243C4.28394 37.1867 4.62126 37.4104 5.47592 37.4104C11.9878 37.4104 18.5011 37.4104 25.013 37.409C25.2103 37.409 25.4156 37.4064 25.605 37.3582L25.6063 37.3568Z" fill="#105CC4"/>
<path d="M25.6023 31.6697C25.4263 31.6322 25.2397 31.6389 25.057 31.6389C21.7837 31.6376 18.5117 31.6389 15.2385 31.6389C11.9825 31.6389 8.72655 31.6389 5.46926 31.6389C5.31993 31.6389 5.16926 31.6309 5.02126 31.6456C4.5546 31.6925 4.28261 31.9884 4.28394 32.429C4.28661 32.8669 4.56127 33.1549 5.0306 33.2044C5.14526 33.2165 5.26259 33.2098 5.37859 33.2098C11.9412 33.2098 18.5037 33.2098 25.065 33.2098C25.281 33.2098 25.4983 33.2272 25.7023 33.1348C26.0463 32.9808 26.205 32.7049 26.1743 32.3353C26.145 31.9817 25.9476 31.7434 25.5996 31.6697H25.6023Z" fill="#105CC4"/>
<path d="M27.3368 40.7831C27.3248 40.2755 27.0288 40.0465 26.3702 40.0465C24.2769 40.0452 22.1849 40.0465 20.0916 40.0465C17.949 40.0465 15.8063 40.0452 13.6637 40.0465C13.025 40.0465 12.7344 40.2942 12.7344 40.8219C12.7344 41.3482 13.0157 41.5933 13.6677 41.5933C17.9023 41.5973 22.1382 41.5973 26.3729 41.5933C27.0262 41.5933 27.3475 41.3107 27.3355 40.7831H27.3368Z" fill="#105CC4"/>
<path d="M29.277 44.2516C26.6557 44.2475 24.0331 44.2489 21.4118 44.2516C20.7838 44.2516 20.4638 44.51 20.4571 45.0095C20.4505 45.5091 20.7745 45.7836 21.3931 45.7863C22.6878 45.7903 23.9811 45.7863 25.2757 45.7863C26.6037 45.7863 27.9304 45.7823 29.2583 45.789C29.6863 45.7903 30.0143 45.6577 30.113 45.2024C30.233 44.6413 29.8943 44.2542 29.2783 44.2529L29.277 44.2516Z" fill="#105CC4"/>
<path d="M38.4727 30.8037C35.958 30.8118 33.9114 32.8782 33.9234 35.3945C33.9354 37.9108 35.9927 39.9598 38.506 39.9545C41.014 39.9504 43.0726 37.88 43.0646 35.3691C43.0566 32.8808 40.9593 30.7944 38.4727 30.8037ZM38.5087 38.3354C36.8847 38.3434 35.4927 36.948 35.4874 35.3075C35.482 33.6335 36.8154 32.2782 38.478 32.2661C40.1326 32.2541 41.4926 33.608 41.5006 35.2767C41.5086 36.9198 40.1326 38.3273 38.5087 38.3354Z" fill="#105CC4"/>
</g>
<defs>
<clipPath id="clip0_890_8773">
<rect width="49" height="50" fill="white"/>
</clipPath>
</defs>
</svg>
