<svg width="50" height="46" viewBox="0 0 50 46" fill="none" xmlns="http://www.w3.org/2000/svg">
<g clip-path="url(#clip0_890_8741)">
<path d="M47.4885 0.142109C47.1078 0.0539489 46.7231 0 46.3306 0C32.1028 0 17.8763 0 3.64855 0.00394748C1.6691 0.00394748 0.560714 0.842129 0 2.71718V43.2828C0.512466 44.9987 1.42786 45.7908 3.11652 45.9776C3.35907 46.0039 3.60421 46 3.84806 46C17.9454 46 32.0415 46 46.1389 46C46.3345 46 46.5288 46.0026 46.7244 45.9882C48.6908 45.8408 49.9974 44.5486 49.9987 42.7144C50.0026 29.5706 50.0026 16.4281 49.9987 3.2843C49.9987 1.71847 49.0077 0.496067 47.4898 0.143425L47.4885 0.142109ZM1.94033 6.92915C1.97293 5.81464 1.94685 4.69882 1.95207 3.583C1.95728 2.69481 2.4541 2.1869 3.33429 2.15138C3.43209 2.14743 3.52989 2.15138 3.62638 2.15138C17.8646 2.15138 32.1041 2.15138 46.3423 2.15138C46.4884 2.15138 46.6357 2.14611 46.7805 2.1619C47.5211 2.24349 47.9893 2.74745 47.9958 3.50536C48.0075 4.70277 47.9827 5.90017 48.0088 7.09757C48.0166 7.45416 47.8758 7.48311 47.5889 7.48048C45.6382 7.46995 43.6874 7.47521 41.7379 7.47521C36.1465 7.47521 30.555 7.47521 24.9635 7.47521C17.4708 7.47521 9.97679 7.47127 2.48409 7.48574C2.03552 7.48574 1.92468 7.36863 1.93772 6.92783L1.94033 6.92915ZM48.001 42.1749C48.001 43.3868 47.5524 43.8486 46.3671 43.8486C32.1106 43.8486 17.8542 43.8486 3.59639 43.8486C2.40064 43.8486 1.95076 43.3933 1.95076 42.1867C1.95076 31.4575 1.95337 20.7282 1.94163 9.99897C1.94163 9.56475 2.029 9.43185 2.488 9.43316C9.98201 9.44895 17.476 9.44501 24.97 9.44501C32.464 9.44501 39.958 9.44895 47.452 9.4358C47.8836 9.4358 48.0127 9.52659 48.0114 9.98713C47.9971 20.7164 47.9997 31.4456 47.9997 42.1749H48.001Z" fill="#105CC4"/>
<path d="M5.74656 33.9286C5.93694 33.9615 6.13515 33.9602 6.32944 33.9602C9.22298 33.9615 12.1178 33.9602 15.0114 33.9602C16.6374 33.9602 18.2635 33.9602 19.8883 33.9602C21.2861 33.9602 22.6853 33.9681 24.0832 33.9496C24.6661 33.9418 25.0547 33.5417 25.0703 33.0088C25.0873 32.4641 24.6817 32.0364 24.0923 31.9956C23.8328 31.9785 23.5681 31.9641 23.3125 31.997C22.9109 32.0496 22.8053 31.9167 22.8066 31.4996C22.8235 26.906 22.8183 22.3112 22.817 17.7176C22.817 16.8057 22.4871 16.4715 21.5835 16.4689C20.1856 16.4649 18.7864 16.4676 17.3885 16.4689C16.2945 16.4689 16.0154 16.7557 16.0154 17.8742C16.0154 22.4348 16.0115 26.9968 16.022 31.5575C16.022 31.8838 15.9711 32.0233 15.6073 32.0009C15.057 31.9667 14.5002 31.968 13.9499 32.0009C13.5913 32.0233 13.53 31.893 13.5313 31.5614C13.5457 29.035 13.5405 26.5073 13.5379 23.9809C13.5379 23.1178 13.1819 22.7546 12.3252 22.7493C10.8777 22.7414 9.43162 22.7427 7.9842 22.7493C7.07271 22.7533 6.73889 23.1059 6.73889 24.0441C6.73889 26.4231 6.73889 28.8021 6.73889 31.1811C6.73889 31.6882 6.48505 31.9592 5.97736 31.9943C5.88087 32.0009 5.78307 32.0167 5.69049 32.043C5.24192 32.168 4.95113 32.5746 4.97721 33.0338C5.00198 33.472 5.31885 33.8549 5.74525 33.9286H5.74656ZM17.9623 18.7939C17.9623 18.5176 18.034 18.4242 18.3157 18.4308C19.0459 18.4492 19.7774 18.4531 20.5077 18.4295C20.8285 18.4189 20.8754 18.5426 20.8741 18.8268C20.8637 20.9743 20.8676 23.1204 20.8676 25.2678C20.8676 27.4152 20.8597 29.464 20.8754 31.5614C20.878 31.8983 20.7998 32.0141 20.4503 32.0009C19.7527 31.9733 19.0537 31.9812 18.3561 31.9983C18.0757 32.0049 17.9597 31.9509 17.961 31.6272C17.9727 27.3495 17.9714 23.073 17.9636 18.7953L17.9623 18.7939ZM8.68574 25.081C8.68574 24.8152 8.7392 24.702 9.02999 24.7099C9.76153 24.7283 10.4931 24.731 11.2246 24.7099C11.5402 24.7007 11.6001 24.8204 11.5962 25.1099C11.5806 26.1928 11.5897 27.2758 11.5897 28.3587C11.5897 29.4416 11.5806 30.5245 11.5962 31.6075C11.6001 31.9022 11.5284 32.0101 11.2207 32.0009C10.5061 31.9799 9.79022 31.9825 9.07563 32.0009C8.79397 32.0075 8.68183 31.9535 8.68444 31.6298C8.70008 29.4482 8.69617 27.2652 8.68705 25.0836L8.68574 25.081Z" fill="#105CC4"/>
<path d="M36.8872 13.1798C32.7471 13.1626 29.3671 16.5377 29.3502 20.705C29.3319 24.9288 32.648 28.3157 36.8207 28.3368C40.9609 28.3578 44.3447 24.9919 44.3721 20.8234C44.3995 16.6325 41.0352 13.1955 36.8885 13.1798H36.8872ZM39.7077 25.588C36.1948 27.7683 31.4535 25.2183 31.3101 21.0616C31.2175 18.3694 32.8279 16.093 35.3381 15.3693C35.505 15.3206 35.6771 15.2917 35.8844 15.2443C35.8844 17.0128 35.8988 18.7325 35.8753 20.4523C35.8688 20.9694 36.0318 21.3497 36.3969 21.7089C37.5275 22.8169 38.6267 23.9577 39.7495 25.0735C39.9724 25.2946 40.0194 25.3933 39.7064 25.588H39.7077ZM41.3938 23.9774C40.2319 22.7984 39.0988 21.6484 37.9643 20.4997C37.8795 20.4142 37.8352 20.3221 37.8352 20.1984C37.8378 18.5615 37.8365 16.9246 37.8365 15.2811C41.6063 15.8706 43.8048 20.4365 41.3938 23.9774Z" fill="#105CC4"/>
<path d="M43.0066 37.5476C37.6577 37.5476 32.3087 37.5476 26.9611 37.5476C21.6134 37.5476 16.2632 37.5476 10.9155 37.5476C10.7369 37.5476 10.5569 37.5423 10.3796 37.5594C9.89452 37.6068 9.54114 37.9765 9.50593 38.4594C9.47333 38.916 9.76021 39.3173 10.2088 39.4581C10.4318 39.5279 10.6587 39.5147 10.8856 39.5147C21.5834 39.5147 32.28 39.5147 42.9779 39.5147C43.892 39.5147 44.3784 39.1647 44.3719 38.5121C44.3654 37.8726 43.9051 37.5449 43.0092 37.5449L43.0066 37.5476Z" fill="#105CC4"/>
<path d="M30.6932 33.9619C32.7561 33.9632 34.819 33.9619 36.8819 33.9619C38.6528 33.9619 40.4223 33.9619 42.1931 33.9619C42.6156 33.9619 43.0381 33.9737 43.4592 33.9448C43.973 33.9106 44.3394 33.5185 44.3668 33.025C44.3942 32.5434 44.0473 32.1105 43.5479 32.0197C43.3901 31.9908 43.2245 31.9947 43.0628 31.9947C38.9214 31.9947 34.7786 31.9934 30.6372 31.9947C30.4442 31.9947 30.2447 32.0013 30.0582 32.046C29.6057 32.1579 29.3319 32.5566 29.354 33.0329C29.3749 33.5027 29.6944 33.8685 30.1586 33.9369C30.3346 33.9632 30.5146 33.9606 30.6932 33.9606V33.9619Z" fill="#105CC4"/>
<path d="M5.91739 37.5548C5.39188 37.5627 4.97721 37.9943 4.97852 38.5299C4.97982 39.0693 5.44665 39.5246 5.97998 39.5075C6.49505 39.4904 6.92928 39.0378 6.92537 38.5206C6.92146 37.9851 6.46376 37.5456 5.91739 37.5548Z" fill="#105CC4"/>
<path d="M8.89055 5.88561C9.41605 5.87771 9.84376 5.44612 9.84637 4.92111C9.85028 4.37767 9.38345 3.91055 8.85795 3.93029C8.34287 3.95003 7.90604 4.39873 7.90213 4.90927C7.89821 5.45928 8.33896 5.89482 8.88924 5.88561H8.89055Z" fill="#105CC4"/>
<path d="M12.7295 5.88159C13.2589 5.87369 13.6671 5.44341 13.6632 4.89603C13.6592 4.35786 13.2354 3.94074 12.6956 3.94337C12.161 3.946 11.7215 4.37759 11.7202 4.90129C11.7189 5.43552 12.187 5.88948 12.7295 5.88159Z" fill="#105CC4"/>
<path d="M5.12738 5.88475C5.66201 5.89265 6.13145 5.4229 6.12493 4.88867C6.11841 4.37682 5.65288 3.92154 5.14042 3.9268C4.61752 3.93207 4.18851 4.37155 4.1846 4.90709C4.18069 5.45185 4.59275 5.87949 5.12738 5.88607V5.88475Z" fill="#105CC4"/>
</g>
<defs>
<clipPath id="clip0_890_8741">
<rect width="50" height="46" fill="white"/>
</clipPath>
</defs>
</svg>
