<svg width="57" height="56" viewBox="0 0 57 56" fill="none" xmlns="http://www.w3.org/2000/svg">
<g clip-path="url(#clip0_890_8857)">
<path d="M40.2396 19.5801C40.2396 13.7495 40.2396 7.91895 40.2396 2.08838C40.2396 0.712222 39.5394 0 38.1633 0C34.9522 0 31.7291 0 28.5181 0C25.2708 0 22.0115 0 18.7522 0C17.4967 0 16.7604 0.736366 16.7483 1.99181C16.7483 7.88273 16.7483 13.7616 16.7483 19.6525C16.7483 20.9442 17.4726 21.6685 18.7763 21.6685C20.9975 21.6685 23.2187 21.6926 25.4398 21.6564C25.9348 21.6564 26.1038 21.8133 26.2486 22.26C26.659 23.5999 27.1419 24.9278 27.5644 26.2677C27.7213 26.7506 27.9628 27.0886 28.4939 27.0886C29.0251 27.0886 29.2665 26.7264 29.4234 26.2557C29.8701 24.8674 30.3529 23.4792 30.7996 22.091C30.9082 21.753 31.0531 21.6685 31.3911 21.6685C33.6243 21.6805 35.8697 21.6685 38.1029 21.6685C39.5273 21.6685 40.2275 20.9804 40.2275 19.5801H40.2396ZM37.9339 19.8698C35.4834 19.8577 33.0449 19.8698 30.5944 19.8698C29.8097 19.8698 29.6166 20.0147 29.3631 20.751C29.0975 21.5477 28.8199 22.3445 28.4939 23.3102C28.1559 22.3203 27.8662 21.4995 27.6127 20.6665C27.4316 20.0992 27.0816 19.8577 26.49 19.8577C24.0033 19.8698 21.5286 19.8577 19.0419 19.8698C18.6435 19.8698 18.547 19.7732 18.547 19.3749C18.559 13.6771 18.559 7.97931 18.547 2.28153C18.547 1.90731 18.6194 1.77452 19.0298 1.78659C25.3432 1.79866 31.6687 1.79866 37.9822 1.78659C38.3564 1.78659 38.4409 1.89524 38.4409 2.25738C38.4409 7.97931 38.4288 13.6892 38.4409 19.4111C38.4409 19.8457 38.284 19.8819 37.9218 19.8698H37.9339Z" fill="#414141"/>
<path d="M32.5741 41.0914C32.2119 40.9465 31.8257 40.8499 31.4152 40.7172C34.59 38.4477 34.4814 34.6452 32.4775 32.4723C30.3046 30.1183 26.659 30.1304 24.4741 32.5085C22.4702 34.6814 22.434 38.496 25.5847 40.7292C25.4277 40.7775 25.3312 40.8137 25.2225 40.8379C22.2167 41.6346 20.3697 44.0368 20.3577 47.1392C20.3577 49.7346 20.3577 52.33 20.3577 54.9254C20.3577 55.6618 20.6957 55.9998 21.42 55.9998C26.1279 55.9998 30.8237 55.9998 35.5316 55.9998C36.268 55.9998 36.606 55.6618 36.606 54.9375C36.606 52.2455 36.6301 49.5535 36.606 46.8616C36.5819 44.2783 34.9763 42.0088 32.562 41.0793L32.5741 41.0914ZM24.8845 36.1058C24.8845 34.1382 26.5021 32.5206 28.4818 32.5206C30.4857 32.5206 32.1154 34.1261 32.1154 36.13C32.1154 38.1218 30.4857 39.7514 28.4939 39.7514C26.5021 39.7514 24.8845 38.1097 24.8845 36.1179V36.1058ZM34.3728 54.2011C32.393 54.2011 30.4254 54.2011 28.4456 54.2011C26.4659 54.2011 24.5706 54.2011 22.6392 54.2011C22.2891 54.2011 22.1684 54.1287 22.1684 53.7545C22.1925 51.4971 22.1684 49.2397 22.1805 46.9823C22.1925 44.4473 24.1602 42.4675 26.6832 42.4675C28.168 42.4675 29.6648 42.3106 31.1255 42.552C33.238 42.9142 34.7711 44.7249 34.8073 46.8616C34.8315 49.1793 34.8073 51.485 34.8315 53.8027C34.8315 54.2011 34.6745 54.2132 34.3728 54.2011Z" fill="#414141"/>
<path d="M13.1994 41.6229C15.6257 39.1965 15.831 36.3717 13.7547 34.3316C11.8715 32.4847 8.86567 32.533 7.01872 34.4282C5.44941 36.0337 4.84583 39.2689 7.69472 41.6229C4.82169 42.3109 3.2041 44.351 3.2041 47.2724C3.2041 49.5056 3.2041 51.7509 3.2041 53.9841C3.2041 54.7567 3.53003 55.0827 4.30261 55.0827C8.3828 55.0827 12.4751 55.0827 16.5553 55.0827C17.3278 55.0827 17.6658 54.7567 17.6658 53.9962C17.6658 51.6423 17.6658 49.2883 17.6658 46.9343C17.6658 46.2342 17.5331 45.5461 17.2554 44.9063C16.4828 43.1077 15.1067 42.0333 13.1994 41.6108V41.6229ZM7.50158 37.7358C7.50158 36.1182 8.80531 34.7904 10.4108 34.7783C12.0284 34.7783 13.3563 36.082 13.3684 37.6875C13.3684 39.3051 12.0646 40.633 10.4591 40.6451C8.84152 40.6451 7.51365 39.3413 7.50158 37.7358ZM15.4085 53.3081C13.7305 53.284 12.0646 53.3081 10.3867 53.3081C8.70874 53.3081 7.11529 53.3081 5.48563 53.3081C5.13555 53.3081 5.00276 53.2478 5.01484 52.8615C5.03898 50.9059 5.01484 48.9503 5.02691 46.9947C5.03898 44.9546 6.60828 43.3853 8.63631 43.3732C9.84346 43.3612 11.0385 43.3612 12.2457 43.3732C14.2737 43.3974 15.843 44.9546 15.8672 46.9826C15.8792 48.9382 15.8672 50.8938 15.8792 52.8494C15.8792 53.2116 15.7947 53.3202 15.4205 53.3081H15.4085Z" fill="#414141"/>
<path d="M49.3295 41.6229C51.7559 39.1723 51.9611 36.3717 49.8848 34.3316C48.0016 32.4847 44.9958 32.533 43.1488 34.4282C41.5675 36.0579 40.988 39.293 43.8249 41.6229C40.9397 42.3109 39.3342 44.351 39.3342 47.2724C39.3342 49.4935 39.3342 51.7147 39.3342 53.9359C39.3342 54.7809 39.636 55.0947 40.481 55.0947C44.525 55.0947 48.569 55.0947 52.613 55.0947C53.458 55.0947 53.7839 54.7809 53.7839 53.9479C53.7839 51.6302 53.7839 49.3245 53.7839 47.0068C53.7839 46.4032 53.6994 45.8117 53.4942 45.2323C52.782 43.2525 51.3575 42.0816 49.3295 41.6108V41.6229ZM43.6317 37.7117C43.6317 36.1062 44.9596 34.7783 46.5772 34.7904C48.1827 34.7904 49.5106 36.1182 49.4985 37.7358C49.4985 39.3413 48.1706 40.6692 46.553 40.6571C44.9475 40.6571 43.6196 39.3293 43.6317 37.7117ZM51.5507 53.3081C49.8727 53.2961 48.2068 53.3081 46.5289 53.3081C44.8509 53.3081 43.2213 53.3081 41.5675 53.3081C41.2174 53.3081 41.1329 53.2236 41.1329 52.8736C41.157 50.9059 41.1329 48.9262 41.145 46.9464C41.157 44.9425 42.7384 43.3853 44.7302 43.3612C45.9494 43.3491 47.1687 43.3491 48.4 43.3612C50.3918 43.3853 51.9611 44.9546 51.9732 46.9585C51.9852 48.9262 51.9732 50.9059 51.9852 52.8856C51.9852 53.2478 51.8766 53.3081 51.5386 53.3081H51.5507Z" fill="#414141"/>
<path d="M54.4359 6.32528C51.0317 6.32528 47.6275 6.32528 44.2233 6.32528C42.9558 6.32528 42.9679 6.32528 42.9437 7.59279C42.9437 8.03944 43.0645 8.13601 43.499 8.13601C47.0722 8.11187 50.6454 8.13601 54.2186 8.11187C54.617 8.11187 54.7135 8.20844 54.7135 8.6068C54.7015 13.701 54.7015 18.8073 54.7135 23.9015C54.7135 24.2998 54.629 24.3964 54.2307 24.3964C52.2751 24.3723 50.3195 24.3964 48.3639 24.3723C47.7724 24.3723 47.4102 24.6016 47.205 25.1449C47.036 25.5915 46.8308 26.0261 46.5894 26.5934C46.3479 26.0381 46.1548 25.6036 45.9858 25.169C45.7685 24.6016 45.4063 24.3602 44.7786 24.3723C43.1248 24.3964 41.471 24.3723 39.8172 24.3723C38.4411 24.3723 38.4652 24.3723 38.4531 25.7243C38.4531 26.0985 38.5497 26.1951 38.9118 26.183C40.5898 26.1589 42.2557 26.183 43.9336 26.1589C44.344 26.1589 44.5251 26.2796 44.67 26.6538C44.9838 27.4747 45.3581 28.2835 45.6961 29.0923C45.8651 29.4785 46.1186 29.7683 46.5652 29.7803C47.0481 29.7803 47.3137 29.5027 47.4827 29.0802C47.8448 28.2352 48.219 27.3902 48.557 26.5452C48.6777 26.2554 48.8226 26.1589 49.1365 26.1589C50.9231 26.1709 52.7096 26.1589 54.4962 26.1589C55.8 26.1589 56.5243 25.4346 56.5243 24.1308C56.5243 18.8676 56.5243 13.5924 56.5243 8.32916C56.5243 7.00129 55.8 6.28906 54.46 6.28906L54.4359 6.32528Z" fill="#414141"/>
<path d="M18.1366 24.3846C16.1447 24.3967 14.1529 24.3967 12.1491 24.3846C11.6058 24.3846 11.2678 24.6019 11.0747 25.1089C10.8936 25.5797 10.6763 26.0263 10.4228 26.6058C10.1814 26.0505 9.98825 25.6159 9.81925 25.1813C9.60196 24.614 9.22774 24.3725 8.61209 24.3846C6.68064 24.4088 4.73712 24.3846 2.7936 24.4088C2.35902 24.4088 2.27452 24.3001 2.27452 23.8897C2.28659 18.8076 2.28659 13.7254 2.27452 8.65536C2.27452 8.23286 2.37109 8.13628 2.7936 8.13628C6.10121 8.16043 9.42089 8.13628 12.7285 8.13628C14.0322 8.13628 14.0081 8.13628 14.0443 6.83255C14.0443 6.41005 13.9477 6.31348 13.5252 6.31348C9.85546 6.33762 6.18571 6.31348 2.51595 6.31348C1.23637 6.32555 0.5 7.04984 0.5 8.3415C0.5 13.6288 0.5 18.9162 0.5 24.2035C0.5 25.459 1.23637 26.1954 2.49181 26.1954C4.2784 26.1954 6.06499 26.1954 7.85158 26.1954C8.18959 26.1954 8.34652 26.2919 8.46723 26.6058C8.79317 27.4387 9.16738 28.2596 9.51746 29.0925C9.68646 29.503 9.93997 29.8168 10.4228 29.8168C10.9057 29.8168 11.1592 29.515 11.3282 29.1046C11.6662 28.2958 12.0283 27.487 12.3543 26.6661C12.4871 26.3161 12.6561 26.1833 13.0544 26.1954C14.4306 26.2316 15.8067 26.1954 17.1708 26.1954C18.5349 26.1954 18.5591 26.1953 18.5591 24.8071C18.5591 24.457 18.4625 24.3725 18.1245 24.3725L18.1366 24.3846Z" fill="#414141"/>
<path d="M47.4342 20.6545C47.7601 20.8839 48.1223 20.7994 48.4241 20.558C49.1363 20.0027 49.8606 19.4715 50.5487 18.8921C51.3454 18.2161 51.9852 17.4073 52.4801 16.4899C53.2165 15.1137 52.8906 13.4358 51.7438 12.4338C50.7901 11.6009 49.2329 11.4077 48.0378 12.458C47.8084 12.6632 47.7239 12.5062 47.5911 12.3976C47.06 11.9751 46.4564 11.7457 46.0339 11.7457C44.9595 11.7457 44.1628 12.132 43.6196 12.7839C42.7263 13.8462 42.5814 15.3431 43.2574 16.5744C44.2352 18.373 45.8287 19.5319 47.4463 20.6666L47.4342 20.6545ZM44.8026 14.2566C45.1648 13.4599 45.9736 13.315 46.6013 13.9186C46.8065 14.1118 46.9755 14.3411 47.1807 14.5343C47.6153 14.9688 48.1344 14.9688 48.5689 14.5343C48.7138 14.3894 48.8466 14.2325 48.9914 14.0755C49.3294 13.6893 49.7157 13.4116 50.271 13.6168C50.766 13.7979 51.0919 14.3049 51.0919 14.9085C51.0919 15.2586 50.9712 15.5603 50.7901 15.8621C50.1141 17.0089 49.1122 17.8298 48.0619 18.6024C47.9171 18.711 47.8205 18.699 47.6756 18.6024C46.6133 17.8419 45.6356 17.0089 44.9475 15.8742C44.6336 15.3551 44.5491 14.824 44.8026 14.2687V14.2566Z" fill="#414141"/>
<path d="M5.02694 15.8015C4.88208 15.8015 4.72515 15.8256 4.58029 15.8015C4.15778 15.729 4.08535 15.9222 4.13364 16.2964C4.39921 18.4572 6.16166 20.1593 8.29833 20.3041C10.4712 20.4611 12.4389 19.0608 13.0062 16.9603C13.2155 16.1797 12.9298 15.7894 12.1492 15.7894C12.0526 15.7894 11.956 15.8015 11.8715 15.7894C11.5214 15.729 11.3766 15.8256 11.3162 16.236C11.0989 17.5398 10.0125 18.4693 8.74498 18.5055C7.45332 18.5417 6.29445 17.6967 6.05302 16.405C5.94438 15.8256 5.70294 15.729 5.22008 15.7894C5.15972 15.7894 5.11144 15.7894 5.05108 15.7894L5.02694 15.8015Z" fill="#414141"/>
<path d="M6.4393 14.0032C6.99459 14.0032 7.27223 13.7175 7.27223 13.1461C7.27223 12.5747 6.95033 12.2569 6.30651 12.1925C5.66269 12.1281 5.38505 12.4138 5.47357 13.0496C5.5621 13.6853 5.884 14.0032 6.4393 14.0032Z" fill="#414141"/>
<path d="M11.7868 13.0857C11.7868 12.4901 11.5011 12.1924 10.9297 12.1924C10.3584 12.1924 10.0445 12.4982 9.98816 13.1098C9.93183 13.7214 10.2175 14.0192 10.8452 14.0031C11.473 13.987 11.7868 13.6812 11.7868 13.0857Z" fill="#414141"/>
<path d="M33.3588 9.02944C33.0932 9.02944 32.8397 9.02944 32.5017 9.02944C32.6586 8.38965 32.8035 7.81021 32.9363 7.23078C33.2139 6.04776 32.6828 4.97339 31.6446 4.63539C30.5461 4.27324 29.4959 4.81646 29.0372 5.9874C28.7474 6.72377 28.4819 7.46013 28.2042 8.1965C27.999 8.72765 27.6248 9.0053 27.0574 9.04151C26.8643 9.04151 26.7194 9.05358 26.647 8.80008C26.5263 8.35343 26.1762 8.14821 25.7054 8.14821C24.5586 8.14821 23.4118 8.14821 22.265 8.14821C21.6373 8.14821 21.2751 8.51036 21.2751 9.12601C21.2751 11.48 21.2751 13.8219 21.2751 16.1758C21.2751 16.8156 21.6132 17.1657 22.2409 17.1657C23.4118 17.1777 24.5707 17.1657 25.7416 17.1657C26.0917 17.1657 26.3935 17.0329 26.5384 16.7311C26.6832 16.4172 26.8039 16.5259 26.9971 16.6466C27.3713 16.888 27.6972 17.1898 28.2042 17.1777C29.8218 17.1536 31.4394 17.1777 33.057 17.1657C34.2159 17.1657 35.1454 16.3448 35.2902 15.1859C35.4592 13.9788 35.6041 12.7596 35.7127 11.5524C35.8335 10.1642 34.7712 9.05358 33.3588 9.04151V9.02944ZM24.5103 15.367C23.0859 15.3912 23.0859 15.4032 23.0859 13.9546C23.0859 12.7716 23.0859 11.5886 23.0859 10.4056C23.0859 10.0555 23.1342 9.92274 23.5325 9.92274C24.8966 9.92274 24.8966 9.92274 24.8966 11.2748V12.6871C24.8966 13.4356 24.8845 14.1961 24.8966 14.9445C24.8966 15.2463 24.8363 15.3549 24.5103 15.367ZM33.564 14.7151C33.5157 15.1618 33.2984 15.3791 32.8276 15.367C32.1275 15.3429 31.4394 15.367 30.7393 15.367C30.4375 15.367 30.1236 15.3187 29.8339 15.367C28.6509 15.6084 27.7576 14.9928 26.816 14.4737C26.6711 14.4013 26.7074 14.2926 26.7074 14.1961C26.7074 13.1821 26.7074 12.168 26.7074 11.154C26.7074 10.9005 26.7919 10.8522 27.0212 10.8402C28.506 10.7919 29.4717 10.0314 29.9787 8.65522C30.2081 8.03957 30.4254 7.42392 30.6668 6.80827C30.7393 6.61513 30.7513 6.27712 31.0531 6.36162C31.3428 6.44612 31.21 6.72377 31.1497 6.94106C30.9324 7.81021 30.7151 8.69144 30.4978 9.56059C30.3168 10.3332 30.6668 10.816 31.4636 10.8281C32.043 10.8402 32.6345 10.8281 33.2139 10.8281C33.7934 10.8281 33.9744 11.0092 33.9141 11.5765C33.8054 12.6268 33.6847 13.6649 33.5761 14.7151H33.564Z" fill="#414141"/>
</g>
<defs>
<clipPath id="clip0_890_8857">
<rect width="56" height="56" fill="white" transform="translate(0.5)"/>
</clipPath>
</defs>
</svg>
