<svg width="48" height="48" viewBox="0 0 48 48" fill="none" xmlns="http://www.w3.org/2000/svg">
<rect width="48" height="48" rx="24" fill="#297CEE"/>
<path d="M17.5896 32.22C16.4309 32.22 15.3676 31.8973 14.3996 31.252C13.4462 30.592 12.6836 29.668 12.1116 28.48C11.5396 27.292 11.2536 25.8913 11.2536 24.278C11.2536 22.6647 11.5322 21.2713 12.0896 20.098C12.6616 18.91 13.4242 17.9933 14.3776 17.348C15.3309 16.7027 16.3869 16.38 17.5456 16.38C18.7189 16.38 19.7822 16.7027 20.7356 17.348C21.6889 17.9933 22.4442 18.91 23.0016 20.098C23.5736 21.2713 23.8596 22.672 23.8596 24.3C23.8596 25.9133 23.5736 27.314 23.0016 28.502C22.4442 29.69 21.6889 30.6067 20.7356 31.252C19.7969 31.8973 18.7482 32.22 17.5896 32.22ZM17.5456 29.844C18.3082 29.844 18.9682 29.6387 19.5256 29.228C20.0829 28.8173 20.5156 28.2013 20.8236 27.38C21.1462 26.5587 21.3076 25.5247 21.3076 24.278C21.3076 23.046 21.1462 22.0193 20.8236 21.198C20.5156 20.3767 20.0756 19.768 19.5036 19.372C18.9462 18.9613 18.2936 18.756 17.5456 18.756C16.7976 18.756 16.1376 18.9613 15.5656 19.372C15.0082 19.768 14.5756 20.3767 14.2676 21.198C13.9596 22.0047 13.8056 23.0313 13.8056 24.278C13.8056 25.5247 13.9596 26.5587 14.2676 27.38C14.5756 28.2013 15.0082 28.8173 15.5656 29.228C16.1376 29.6387 16.7976 29.844 17.5456 29.844ZM30.1796 32.22C29.1529 32.22 28.2216 32.0367 27.3856 31.67C26.5642 31.2887 25.8676 30.7387 25.2956 30.02L27.0116 28.304C27.3196 28.7733 27.7522 29.1473 28.3096 29.426C28.8669 29.7047 29.4756 29.844 30.1356 29.844C30.7662 29.844 31.3089 29.7267 31.7636 29.492C32.2182 29.2573 32.5702 28.9273 32.8196 28.502C33.0836 28.0767 33.2156 27.5853 33.2156 27.028C33.2156 26.4413 33.0836 25.9427 32.8196 25.532C32.5702 25.1213 32.2036 24.806 31.7196 24.586C31.2502 24.3513 30.6782 24.234 30.0036 24.234C29.7396 24.234 29.4682 24.256 29.1896 24.3C28.9109 24.3293 28.6616 24.3807 28.4416 24.454L29.5636 23.002C29.8716 22.8847 30.1942 22.7893 30.5316 22.716C30.8836 22.628 31.2209 22.584 31.5436 22.584C32.3356 22.584 33.0469 22.7747 33.6776 23.156C34.3229 23.5373 34.8289 24.0727 35.1956 24.762C35.5769 25.4367 35.7676 26.236 35.7676 27.16C35.7676 28.1573 35.5329 29.0373 35.0636 29.8C34.5942 30.5627 33.9416 31.1567 33.1056 31.582C32.2696 32.0073 31.2942 32.22 30.1796 32.22ZM28.4416 24.454V22.958L32.5556 18.162L35.5916 18.096L31.3016 23.024L28.4416 24.454ZM26.0656 18.866V16.6H35.5916V18.096L33.4136 18.866H26.0656Z" fill="white"/>
</svg>
