<svg width="48" height="48" viewBox="0 0 48 48" fill="none" xmlns="http://www.w3.org/2000/svg">
<rect width="48" height="48" rx="24" fill="#297CEE"/>
<path d="M17.5788 32.22C16.4202 32.22 15.3568 31.8973 14.3888 31.252C13.4355 30.592 12.6728 29.668 12.1008 28.48C11.5288 27.292 11.2428 25.8913 11.2428 24.278C11.2428 22.6647 11.5215 21.2713 12.0788 20.098C12.6508 18.91 13.4135 17.9933 14.3668 17.348C15.3202 16.7027 16.3762 16.38 17.5348 16.38C18.7082 16.38 19.7715 16.7027 20.7248 17.348C21.6782 17.9933 22.4335 18.91 22.9908 20.098C23.5628 21.2713 23.8488 22.672 23.8488 24.3C23.8488 25.9133 23.5628 27.314 22.9908 28.502C22.4335 29.69 21.6782 30.6067 20.7248 31.252C19.7862 31.8973 18.7375 32.22 17.5788 32.22ZM17.5348 29.844C18.2975 29.844 18.9575 29.6387 19.5148 29.228C20.0722 28.8173 20.5048 28.2013 20.8128 27.38C21.1355 26.5587 21.2968 25.5247 21.2968 24.278C21.2968 23.046 21.1355 22.0193 20.8128 21.198C20.5048 20.3767 20.0648 19.768 19.4928 19.372C18.9355 18.9613 18.2828 18.756 17.5348 18.756C16.7868 18.756 16.1268 18.9613 15.5548 19.372C14.9975 19.768 14.5648 20.3767 14.2568 21.198C13.9488 22.0047 13.7948 23.0313 13.7948 24.278C13.7948 25.5247 13.9488 26.5587 14.2568 27.38C14.5648 28.2013 14.9975 28.8173 15.5548 29.228C16.1268 29.6387 16.7868 29.844 17.5348 29.844ZM25.3728 30.504L31.0488 24.476C31.5182 23.9773 31.8995 23.53 32.1928 23.134C32.4862 22.738 32.6988 22.364 32.8308 22.012C32.9628 21.66 33.0288 21.3007 33.0288 20.934C33.0288 20.2447 32.8015 19.7093 32.3468 19.328C31.9068 18.932 31.3422 18.734 30.6528 18.734C29.9195 18.734 29.2742 18.9173 28.7168 19.284C28.1595 19.6507 27.6608 20.2227 27.2208 21L25.4608 19.548C26.0622 18.5067 26.8028 17.722 27.6828 17.194C28.5628 16.6513 29.5822 16.38 30.7408 16.38C31.6942 16.38 32.5302 16.5707 33.2488 16.952C33.9675 17.3333 34.5248 17.8687 34.9208 18.558C35.3168 19.2327 35.5148 20.0173 35.5148 20.912C35.5148 21.5573 35.4342 22.1367 35.2728 22.65C35.1262 23.1487 34.8695 23.6547 34.5028 24.168C34.1362 24.6667 33.6302 25.2533 32.9848 25.928L28.6288 30.438L25.3728 30.504ZM25.3728 32V30.504L27.5508 29.734H35.8228V32H25.3728Z" fill="white"/>
</svg>
