<svg width="49" height="48" viewBox="0 0 49 48" fill="none" xmlns="http://www.w3.org/2000/svg">
<rect x="0.5" width="48" height="48" rx="24" fill="#297CEE"/>
<path d="M20.1198 32.22C18.9612 32.22 17.8978 31.8973 16.9298 31.252C15.9765 30.592 15.2138 29.668 14.6418 28.48C14.0698 27.292 13.7838 25.8913 13.7838 24.278C13.7838 22.6647 14.0625 21.2713 14.6198 20.098C15.1918 18.91 15.9545 17.9933 16.9078 17.348C17.8612 16.7027 18.9172 16.38 20.0758 16.38C21.2492 16.38 22.3125 16.7027 23.2658 17.348C24.2192 17.9933 24.9745 18.91 25.5318 20.098C26.1038 21.2713 26.3898 22.672 26.3898 24.3C26.3898 25.9133 26.1038 27.314 25.5318 28.502C24.9745 29.69 24.2192 30.6067 23.2658 31.252C22.3272 31.8973 21.2785 32.22 20.1198 32.22ZM20.0758 29.844C20.8385 29.844 21.4985 29.6387 22.0558 29.228C22.6132 28.8173 23.0458 28.2013 23.3538 27.38C23.6765 26.5587 23.8378 25.5247 23.8378 24.278C23.8378 23.046 23.6765 22.0193 23.3538 21.198C23.0458 20.3767 22.6058 19.768 22.0338 19.372C21.4765 18.9613 20.8238 18.756 20.0758 18.756C19.3278 18.756 18.6678 18.9613 18.0958 19.372C17.5385 19.768 17.1058 20.3767 16.7978 21.198C16.4898 22.0047 16.3358 23.0313 16.3358 24.278C16.3358 25.5247 16.4898 26.5587 16.7978 27.38C17.1058 28.2013 17.5385 28.8173 18.0958 29.228C18.6678 29.6387 19.3278 29.844 20.0758 29.844ZM30.9499 32V16.6H33.4359V32H30.9499ZM27.8699 18.866V16.6H33.2159V18.866H27.8699Z" fill="white"/>
</svg>
