<svg width="48" height="48" viewBox="0 0 48 48" fill="none" xmlns="http://www.w3.org/2000/svg">
<rect width="48" height="48" rx="24" fill="#297CEE"/>
<path d="M16.945 32.22C15.7864 32.22 14.723 31.8973 13.755 31.252C12.8017 30.592 12.039 29.668 11.467 28.48C10.895 27.292 10.609 25.8913 10.609 24.278C10.609 22.6647 10.8877 21.2713 11.445 20.098C12.017 18.91 12.7797 17.9933 13.733 17.348C14.6864 16.7027 15.7424 16.38 16.901 16.38C18.0744 16.38 19.1377 16.7027 20.091 17.348C21.0444 17.9933 21.7997 18.91 22.357 20.098C22.929 21.2713 23.215 22.672 23.215 24.3C23.215 25.9133 22.929 27.314 22.357 28.502C21.7997 29.69 21.0444 30.6067 20.091 31.252C19.1524 31.8973 18.1037 32.22 16.945 32.22ZM16.901 29.844C17.6637 29.844 18.3237 29.6387 18.881 29.228C19.4384 28.8173 19.871 28.2013 20.179 27.38C20.5017 26.5587 20.663 25.5247 20.663 24.278C20.663 23.046 20.5017 22.0193 20.179 21.198C19.871 20.3767 19.431 19.768 18.859 19.372C18.3017 18.9613 17.649 18.756 16.901 18.756C16.153 18.756 15.493 18.9613 14.921 19.372C14.3637 19.768 13.931 20.3767 13.623 21.198C13.315 22.0047 13.161 23.0313 13.161 24.278C13.161 25.5247 13.315 26.5587 13.623 27.38C13.931 28.2013 14.3637 28.8173 14.921 29.228C15.493 29.6387 16.153 29.844 16.901 29.844ZM24.739 26.5L30.217 16.6H33.077L27.467 26.5H24.739ZM24.739 28.04V26.5L25.817 25.774H36.685V28.04H24.739ZM32.043 32V21.924H34.529V32H32.043Z" fill="white"/>
</svg>
