<svg width="151" height="36" viewBox="0 0 151 36" fill="none" xmlns="http://www.w3.org/2000/svg">
<path d="M51.9493 33.0371V23.7843C50.6736 25.2505 48.6834 26.1607 46.5401 26.1607C41.7432 26.1607 38.222 22.6213 38.222 17.8685C38.222 13.3685 41.8452 9.62695 46.6931 9.62695C51.5411 9.62695 55.1643 13.1663 55.1643 17.8685V32.9865H51.9493V33.0371ZM51.9493 17.9191C51.9493 15.0371 49.6529 12.7112 46.6931 12.7112C43.7334 12.7112 41.437 15.0371 41.437 17.9191C41.437 20.8011 43.7334 23.1775 46.6931 23.1775C49.6529 23.1775 51.9493 20.7505 51.9493 17.9191Z" fill="#297CEE"/>
<path d="M57.1544 33.0371V17.8685C57.1544 13.1663 60.8286 9.62695 65.6255 9.62695C70.4224 9.62695 74.0456 13.3685 74.0456 17.8685C74.0456 22.6213 70.5755 26.1607 65.7276 26.1607C63.5843 26.1607 61.6451 25.2505 60.3183 23.8348V33.0371H57.1034H57.1544ZM70.8307 17.9191C70.8307 15.0371 68.5343 12.7112 65.6255 12.7112C62.7168 12.7112 60.3694 15.0371 60.3694 17.9191C60.3694 20.8011 62.6657 23.1775 65.6255 23.1775C68.5853 23.1775 70.8307 20.7505 70.8307 17.9191Z" fill="#297CEE"/>
<path d="M75.7296 25.8072V16.4027C75.7296 12.56 77.9239 9.72852 82.1085 9.72852C83.1291 9.72852 84.1497 9.93076 84.9662 10.2847V13.4195C84.2007 12.9645 83.2822 12.7622 82.4146 12.7622C80.2713 12.7622 78.9956 14.2285 78.9956 16.5038V25.7566H75.7806L75.7296 25.8072Z" fill="#297CEE"/>
<path d="M84.3539 17.8685C84.3539 13.318 88.0791 9.62695 92.876 9.62695C97.6729 9.62695 101.296 13.3685 101.296 17.8685C101.296 22.3685 97.6219 26.1607 92.876 26.1607C88.1302 26.1607 84.3539 22.4191 84.3539 17.8685ZM98.0811 17.8685C98.0811 14.9865 95.8358 12.6101 92.876 12.6101C89.9162 12.6101 87.5688 14.9865 87.5688 17.8685C87.5688 20.7505 89.8652 23.127 92.876 23.127C95.8868 23.127 98.0811 20.7505 98.0811 17.8685Z" fill="#297CEE"/>
<path d="M100.224 25.8065L104.256 19.8402C104.715 19.1324 104.97 18.5256 104.97 17.9189C104.97 17.3627 104.766 16.8065 104.307 16.1492L100.224 10.0312H103.848L107.114 14.8346C107.42 15.3402 107.675 15.8459 107.828 16.402H109.563C109.716 15.8459 109.971 15.2897 110.277 14.8346L113.492 10.0312H117.167L113.084 16.1492C112.625 16.8065 112.421 17.3627 112.421 17.9189C112.421 18.5256 112.625 19.1324 113.135 19.8402L117.167 25.8065H113.543L110.277 21.0537C109.92 20.4975 109.665 19.9414 109.512 19.3346H107.93C107.777 19.9414 107.522 20.4975 107.165 21.0537L103.899 25.8065H100.275H100.224Z" fill="#297CEE"/>
<path d="M118.187 4.82379C118.187 3.66087 119.157 2.7002 120.28 2.7002C121.402 2.7002 122.372 3.66087 122.372 4.82379C122.372 5.98671 121.453 6.89682 120.28 6.89682C119.106 6.89682 118.187 5.98671 118.187 4.82379ZM121.912 10.0317V25.7564H118.698V10.0317H121.912Z" fill="#297CEE"/>
<path d="M151 17.5146V25.8067H147.785V18.0202C147.785 15.1888 146.356 12.6607 143.345 12.6607C140.335 12.6607 139.008 15.0876 139.008 17.9697V25.8067H135.793V17.9697C135.793 15.0876 134.313 12.6607 131.353 12.6607C128.393 12.6607 127.067 15.1888 127.067 18.0202V25.8067H123.852V17.5652C123.852 13.1663 126.403 9.62695 131.149 9.62695C134.313 9.62695 136.609 11.2449 137.426 13.6719C138.293 11.2449 140.539 9.62695 143.55 9.62695C148.346 9.62695 150.949 13.1663 150.949 17.5146H151Z" fill="#297CEE"/>
<path d="M30.5903 10.9923C30.5903 12.6305 29.1206 13.7227 27.4673 13.3131C27.0998 13.2221 26.7324 13.0856 26.3191 13.0401C25.1709 12.8126 24.5279 13.2676 24.2064 14.3598C24.1605 14.5873 24.1145 14.8148 23.9767 15.0423C23.6093 15.8614 22.6908 16.18 21.8641 15.8614C21.0374 15.5429 20.624 14.6783 20.8996 13.8137C21.1752 12.9946 21.9559 12.5395 22.8286 12.7216C23.0582 12.7671 23.2878 12.8581 23.5175 12.8581C24.436 12.9946 25.1249 12.585 25.4924 11.7204C25.6301 11.3564 25.6761 10.9923 25.722 10.6283C25.9057 9.30864 26.962 8.44403 28.3858 8.58055C29.5799 8.67156 30.5444 9.76369 30.5444 10.9923H30.5903Z" fill="#297CEE"/>
<path d="M1.60999 11.0371C1.60999 9.76295 2.52854 8.71632 3.72266 8.5798C5.00863 8.44329 6.1109 9.17138 6.43239 10.4455C6.52425 10.8096 6.57018 11.1281 6.66203 11.4922C6.9376 12.5388 7.67244 12.9938 8.72878 12.8573C9.05027 12.8118 9.41769 12.7208 9.73919 12.7208C10.6118 12.7208 11.3007 13.2669 11.4385 14.177C11.5304 14.9506 10.9792 15.7242 10.1525 15.9517C9.37176 16.1792 8.54507 15.7242 8.22357 14.9051C8.13172 14.7231 8.08579 14.4955 8.03986 14.268C7.62651 13.1304 6.79981 12.6753 5.65162 13.0394C5.10049 13.1759 4.59528 13.4034 3.99822 13.4034C2.66632 13.3579 1.60999 12.3113 1.60999 11.0371Z" fill="#297CEE"/>
<path d="M1.60999 25.0081C1.60999 23.3699 3.07967 22.2777 4.73307 22.6873C4.96271 22.7328 5.23827 22.8238 5.46791 22.9148C6.79981 23.3244 7.62651 22.8693 8.03986 21.5497C8.08579 21.3221 8.17764 21.0946 8.2695 20.8671C8.63692 20.139 9.46362 19.8204 10.1985 20.048C10.9333 20.2755 11.4385 21.0946 11.3467 21.8227C11.2089 22.6418 10.5659 23.2334 9.73919 23.2334C9.37176 23.2334 9.05027 23.1424 8.68285 23.0513C7.71837 22.8693 6.9376 23.3244 6.6161 24.28C6.47832 24.6895 6.43239 25.0991 6.34054 25.5086C6.01904 26.7373 4.91678 27.4654 3.72266 27.3289C2.57447 27.2379 1.60999 26.1912 1.60999 25.0081Z" fill="#297CEE"/>
<path d="M30.5903 24.9621C30.5903 26.1908 29.6718 27.2374 28.4777 27.3739C27.2835 27.5104 26.1354 26.7824 25.8139 25.6447C25.722 25.2807 25.6761 24.8711 25.5842 24.5071C25.3087 23.3694 24.5279 22.8689 23.3797 23.1419C22.7826 23.2784 22.2315 23.3694 21.6344 23.0509C21.0374 22.6868 20.7159 22.0498 20.8537 21.3217C20.9915 20.6846 21.5426 20.1385 22.1856 20.0475C22.9204 19.9565 23.5634 20.275 23.8849 20.9121C24.0227 21.1852 24.0686 21.4582 24.1605 21.7312C24.5279 22.9144 25.4005 23.3239 26.5946 23.0054C26.9161 22.9144 27.2835 22.7779 27.605 22.6868C29.1207 22.3683 30.5444 23.5059 30.5444 25.0531L30.5903 24.9621Z" fill="#297CEE"/>
<path d="M16.169 1.7998C17.1335 1.7998 17.9143 2.34587 18.3276 3.347C18.695 4.2116 18.4654 5.25823 17.7765 5.89531C17.5009 6.16834 17.1794 6.44138 16.8579 6.71441C16.169 7.397 16.169 8.30711 16.7661 9.0352C16.9498 9.26273 17.1335 9.44475 17.3172 9.62677C17.9143 10.3094 17.9143 11.2195 17.2713 11.8565C16.6742 12.4936 15.6638 12.4936 15.0208 11.9021C14.3778 11.3105 14.286 10.3549 14.883 9.67228C15.0668 9.44475 15.2964 9.21722 15.4801 8.98969C16.0772 8.2616 16.0312 7.35149 15.3882 6.66891C15.0668 6.35037 14.7453 6.07733 14.4238 5.75879C13.7349 5.0307 13.5971 4.1661 13.9645 3.25598C14.3319 2.39138 15.2045 1.7998 16.169 1.7998Z" fill="#297CEE"/>
<path d="M16.3528 34.2001C15.2046 34.2001 14.286 33.6085 13.9645 32.7894C13.5971 31.8338 13.689 30.9692 14.3779 30.1956C14.6535 29.8771 15.0209 29.604 15.2964 29.331C16.0313 28.6029 16.0313 27.6018 15.3424 26.8282C15.2046 26.6462 15.0209 26.5097 14.8372 26.3276C14.2401 25.6451 14.286 24.6894 14.929 24.0979C15.4802 23.5518 16.5365 23.5063 17.0876 24.0069C17.8225 24.6894 17.9143 25.554 17.3173 26.2821C17.1336 26.5097 16.9039 26.7372 16.7202 26.9647C16.0772 27.7383 16.1231 28.6029 16.8121 29.2855C17.1336 29.604 17.501 29.8771 17.8225 30.2411C18.5114 31.0147 18.6032 31.8793 18.2358 32.7894C17.8684 33.6995 17.1336 34.1546 16.3528 34.2001Z" fill="#297CEE"/>
<path d="M23.1041 9.30851C23.1041 10.3551 22.3234 11.1287 21.267 11.1287C20.2566 11.1287 19.4299 10.3096 19.4299 9.30851C19.4299 8.30738 20.2566 7.48828 21.267 7.48828C22.2774 7.48828 23.1041 8.30738 23.1041 9.30851Z" fill="#126AE3"/>
<path d="M9.09622 9.35401C9.09622 8.30738 9.92292 7.48828 10.8874 7.48828C11.8978 7.48828 12.7245 8.30738 12.7245 9.30851C12.7245 10.3096 11.8978 11.1287 10.8874 11.1287C9.87699 11.1287 9.05029 10.3551 9.05029 9.35401H9.09622Z" fill="#126AE3"/>
<path d="M23.1041 26.6463C23.1041 27.6019 22.1856 28.4665 21.2211 28.4665C20.2566 28.4665 19.4299 27.6019 19.4299 26.6007C19.4299 25.5996 20.2566 24.7805 21.313 24.826C22.3234 24.826 23.1041 25.6451 23.1041 26.6463Z" fill="#126AE3"/>
<path d="M10.9333 24.8711C11.9896 24.8711 12.7704 25.6902 12.7704 26.6913C12.7704 27.6924 11.8978 28.5115 10.9333 28.5115C9.92289 28.5115 9.09619 27.6469 9.09619 26.6458C9.09619 25.6447 9.87696 24.8711 10.9333 24.8711Z" fill="#126AE3"/>
<path d="M5.88117 16.1797C6.84566 16.1797 7.71828 16.9988 7.71828 17.9089C7.71828 18.8645 6.89158 19.7291 5.9271 19.7746C4.91669 19.7746 4.04407 18.9555 4.04407 17.9544C4.04407 16.9533 4.87077 16.1797 5.88117 16.1797Z" fill="#126AE3"/>
<path d="M24.4819 17.9544C24.4819 16.9533 25.2627 16.1797 26.2731 16.1797C27.2835 16.1797 28.1102 16.9988 28.1102 17.9999C28.1102 18.9555 27.2835 19.7746 26.319 19.7746C25.3086 19.7746 24.4819 18.9555 24.4819 17.9089V17.9544Z" fill="#126AE3"/>
<path d="M14.5156 13.7218C14.5156 14.2224 14.1023 14.6319 13.5512 14.6319C13 14.6319 12.5867 14.2224 12.5867 13.6763C12.5867 13.1758 13.0459 12.7207 13.5971 12.7207C14.0564 12.7207 14.5156 13.2213 14.5156 13.6763V13.7218Z" fill="#0D50AD"/>
<path d="M19.6136 13.6763C19.6136 14.1769 19.2003 14.5864 18.6951 14.6319C18.1899 14.6319 17.7306 14.2224 17.7306 13.7218C17.7306 13.2213 18.1899 12.7207 18.6951 12.7207C19.2003 12.7207 19.6136 13.1758 19.6596 13.6763H19.6136Z" fill="#0D50AD"/>
<path d="M13.5512 23.187C13 23.187 12.5867 22.7775 12.5867 22.2769C12.5867 21.7308 13.0459 21.3213 13.5512 21.3213C14.1023 21.3213 14.5156 21.7763 14.4697 22.2769C14.4697 22.823 14.0564 23.187 13.5052 23.187H13.5512Z" fill="#0D50AD"/>
<path d="M18.6951 21.3213C19.2003 21.3213 19.6136 21.7308 19.6136 22.2769C19.6136 22.823 19.2003 23.2325 18.6491 23.187C18.1439 23.187 17.7306 22.7775 17.7306 22.2769C17.7306 21.7763 18.1899 21.3213 18.741 21.3213H18.6951Z" fill="#0D50AD"/>
<path d="M21.1292 17.0898C21.6804 17.0898 22.0937 17.4994 22.0937 18C22.0937 18.5005 21.6804 18.9101 21.1752 18.9556C20.624 18.9556 20.2107 18.5005 20.2107 18C20.2107 17.5449 20.67 17.1353 21.1752 17.1353L21.1292 17.0898Z" fill="#0D50AD"/>
<path d="M11.9896 17.9545C11.9896 18.5005 11.6222 18.9101 11.117 18.9101C10.5658 18.9101 10.1066 18.5005 10.1066 18C10.1066 17.4994 10.5199 17.0898 11.071 17.0898C11.6222 17.0898 11.9896 17.4539 11.9896 18V17.9545Z" fill="#0D50AD"/>
</svg>
