<svg width="161" height="36" viewBox="0 0 161 36" fill="none" xmlns="http://www.w3.org/2000/svg">
<path d="M39.207 28.7927V7.05859H42.189V20.1104H43.995C44.142 19.7433 44.387 19.4115 44.688 19.108L49.413 13.9198H53.053L46.704 20.9009C46.522 21.0492 46.431 21.1762 46.431 21.3245C46.431 21.4727 46.522 21.5998 46.704 21.748L53.025 28.7927H49.35L44.653 23.6045C44.352 23.2374 44.114 22.8774 43.96 22.4821H42.182V28.7927H39.2H39.207Z" fill="#297CEE"/>
<path d="M65.429 21.0778V13.9131H68.411V21.4378C68.411 25.7507 65.821 29.146 61.187 29.146C56.553 29.146 54.026 25.7154 54.026 21.4096V13.9131H57.008V21.106C57.008 23.8378 58.485 26.2378 61.194 26.2378C63.903 26.2378 65.436 23.8378 65.436 21.0778H65.429Z" fill="#297CEE"/>
<path d="M69.552 28.7927V19.9268C69.552 16.3127 71.596 13.6162 75.453 13.6162C76.384 13.6162 77.35 13.7997 78.099 14.1597V17.1315C77.378 16.708 76.531 16.4962 75.719 16.4962C73.731 16.4962 72.527 17.8656 72.527 20.0468V28.7856H69.545L69.552 28.7927Z" fill="#297CEE"/>
<path d="M77.56 21.261C77.56 16.9834 80.598 13.4893 85.022 13.4893C89.446 13.4893 92.246 16.7363 92.246 20.894V22.1081H80.444C80.773 24.6563 82.698 26.4493 85.351 26.4493C87.157 26.4493 88.781 25.6587 89.656 24.021L91.945 25.2069C90.65 27.7551 88.27 29.1246 85.386 29.1246C80.899 29.1246 77.56 25.8493 77.56 21.261ZM89.271 20.1669C89.152 17.8022 87.437 16.1928 84.994 16.1928C82.551 16.1928 80.871 17.9504 80.57 20.1669H89.271Z" fill="#297CEE"/>
<path d="M96.376 21.5996V28.7925H93.394V21.296C93.394 16.9549 95.956 13.5596 100.709 13.5596C105.462 13.5596 108.143 16.9619 108.143 21.2678V28.7925H105.161V21.6278C105.161 18.8325 103.656 16.4396 100.709 16.4396C97.762 16.4396 96.376 18.8396 96.376 21.5996Z" fill="#297CEE"/>
<path d="M109.074 21.3245C109.074 17.0469 112.539 13.5527 116.963 13.5527C121.387 13.5527 124.789 17.0751 124.789 21.3245C124.789 25.5739 121.387 29.1527 116.963 29.1527C112.539 29.1527 109.074 25.6304 109.074 21.3245ZM121.807 21.3527C121.807 18.621 119.7 16.3763 116.963 16.3763C114.226 16.3763 112.056 18.621 112.056 21.3527C112.056 24.0845 114.191 26.301 116.963 26.301C119.735 26.301 121.807 24.0563 121.807 21.3527Z" fill="#297CEE"/>
<path d="M125.391 21.381C125.391 16.8563 128.639 13.5528 133.098 13.5528C135.086 13.5528 136.892 14.4351 138.096 15.7693L138.124 7.08691H141.106V21.381C141.106 25.7787 137.704 29.1528 133.252 29.1528C128.8 29.1528 125.398 25.6657 125.398 21.381H125.391ZM138.124 21.3528C138.124 18.6493 136.017 16.4046 133.245 16.4046C130.473 16.4046 128.366 18.6493 128.366 21.3528C128.366 24.0563 130.501 26.3293 133.245 26.3293C135.989 26.3293 138.124 24.0846 138.124 21.3528Z" fill="#297CEE"/>
<path d="M142.037 21.261C142.037 16.9834 145.075 13.4893 149.499 13.4893C153.923 13.4893 156.723 16.7363 156.723 20.894V22.1081H144.921C145.25 24.6563 147.182 26.4493 149.828 26.4493C151.634 26.4493 153.258 25.6587 154.133 24.021L156.422 25.2069C155.127 27.7551 152.747 29.1246 149.863 29.1246C145.376 29.1246 142.037 25.8493 142.037 21.261ZM153.748 20.1669C153.629 17.8022 151.914 16.1928 149.471 16.1928C147.028 16.1928 145.348 17.9504 145.047 20.1669H153.748Z" fill="#297CEE"/>
<path d="M30.5904 10.9923C30.5904 12.6305 29.1207 13.7227 27.4673 13.3131C27.0999 13.2221 26.7325 13.0856 26.3191 13.0401C25.1709 12.8126 24.5279 13.2676 24.2064 14.3598C24.1605 14.5873 24.1146 14.8148 23.9768 15.0423C23.6094 15.8614 22.6908 16.18 21.8641 15.8614C21.0374 15.5429 20.6241 14.6783 20.8997 13.8137C21.1752 12.9946 21.956 12.5395 22.8286 12.7216C23.0583 12.7671 23.2879 12.8581 23.5175 12.8581C24.4361 12.9946 25.125 12.585 25.4924 11.7204C25.6302 11.3564 25.6761 10.9923 25.7221 10.6283C25.9058 9.30864 26.9621 8.44403 28.3859 8.58055C29.58 8.67156 30.5445 9.76369 30.5445 10.9923H30.5904Z" fill="#297CEE"/>
<path d="M1.61005 11.0371C1.61005 9.76295 2.5286 8.71632 3.72272 8.5798C5.0087 8.44329 6.11096 9.17138 6.43245 10.4455C6.52431 10.8096 6.57024 11.1281 6.66209 11.4922C6.93766 12.5388 7.6725 12.9938 8.72884 12.8573C9.05033 12.8118 9.41775 12.7208 9.73925 12.7208C10.6119 12.7208 11.3008 13.2669 11.4386 14.177C11.5304 14.9506 10.9793 15.7242 10.1526 15.9517C9.37183 16.1792 8.54513 15.7242 8.22363 14.9051C8.13178 14.7231 8.08585 14.4955 8.03992 14.268C7.62657 13.1304 6.79987 12.6753 5.65168 13.0394C5.10055 13.1759 4.59535 13.4034 3.99829 13.4034C2.66638 13.3579 1.61005 12.3113 1.61005 11.0371Z" fill="#297CEE"/>
<path d="M1.61005 25.0081C1.61005 23.3699 3.07973 22.2777 4.73313 22.6873C4.96277 22.7328 5.23833 22.8238 5.46797 22.9148C6.79987 23.3244 7.62657 22.8693 8.03992 21.5497C8.08585 21.3221 8.17771 21.0946 8.26956 20.8671C8.63698 20.139 9.46368 19.8204 10.1985 20.048C10.9334 20.2755 11.4386 21.0946 11.3467 21.8227C11.2089 22.6418 10.5659 23.2334 9.73925 23.2334C9.37182 23.2334 9.05033 23.1424 8.68291 23.0513C7.71843 22.8693 6.93766 23.3244 6.61616 24.28C6.47838 24.6895 6.43245 25.0991 6.3406 25.5086C6.0191 26.7373 4.91684 27.4654 3.72272 27.3289C2.57453 27.2379 1.61005 26.1912 1.61005 25.0081Z" fill="#297CEE"/>
<path d="M30.5904 24.9621C30.5904 26.1908 29.6718 27.2374 28.4777 27.3739C27.2836 27.5104 26.1354 26.7824 25.8139 25.6447C25.7221 25.2807 25.6761 24.8711 25.5843 24.5071C25.3087 23.3694 24.5279 22.8689 23.3798 23.1419C22.7827 23.2784 22.2316 23.3694 21.6345 23.0509C21.0374 22.6868 20.716 22.0498 20.8537 21.3217C20.9915 20.6846 21.5426 20.1385 22.1856 20.0475C22.9205 19.9565 23.5635 20.275 23.885 20.9121C24.0227 21.1852 24.0687 21.4582 24.1605 21.7312C24.5279 22.9144 25.4006 23.3239 26.5947 23.0054C26.9162 22.9144 27.2836 22.7779 27.6051 22.6868C29.1207 22.3683 30.5445 23.5059 30.5445 25.0531L30.5904 24.9621Z" fill="#297CEE"/>
<path d="M16.1691 1.7998C17.1336 1.7998 17.9143 2.34587 18.3277 3.347C18.6951 4.2116 18.4655 5.25823 17.7765 5.89531C17.501 6.16834 17.1795 6.44138 16.858 6.71441C16.1691 7.397 16.1691 8.30711 16.7661 9.0352C16.9499 9.26273 17.1336 9.44475 17.3173 9.62677C17.9143 10.3094 17.9143 11.2195 17.2713 11.8565C16.6743 12.4936 15.6639 12.4936 15.0209 11.9021C14.3779 11.3105 14.286 10.3549 14.8831 9.67228C15.0668 9.44475 15.2965 9.21722 15.4802 8.98969C16.0772 8.2616 16.0313 7.35149 15.3883 6.66891C15.0668 6.35037 14.7453 6.07733 14.4238 5.75879C13.7349 5.0307 13.5971 4.1661 13.9646 3.25598C14.332 2.39138 15.2046 1.7998 16.1691 1.7998Z" fill="#297CEE"/>
<path d="M16.3528 34.2001C15.2047 34.2001 14.2861 33.6085 13.9646 32.7894C13.5972 31.8338 13.689 30.9692 14.378 30.1956C14.6535 29.8771 15.0209 29.604 15.2965 29.331C16.0313 28.6029 16.0313 27.6018 15.3424 26.8282C15.2047 26.6462 15.0209 26.5097 14.8372 26.3276C14.2402 25.6451 14.2861 24.6894 14.9291 24.0979C15.4802 23.5518 16.5366 23.5063 17.0877 24.0069C17.8225 24.6894 17.9144 25.554 17.3173 26.2821C17.1336 26.5097 16.904 26.7372 16.7203 26.9647C16.0773 27.7383 16.1232 28.6029 16.8121 29.2855C17.1336 29.604 17.501 29.8771 17.8225 30.2411C18.5114 31.0147 18.6033 31.8793 18.2359 32.7894C17.8685 33.6995 17.1336 34.1546 16.3528 34.2001Z" fill="#297CEE"/>
<path d="M23.1041 9.30851C23.1041 10.3551 22.3234 11.1287 21.267 11.1287C20.2566 11.1287 19.4299 10.3096 19.4299 9.30851C19.4299 8.30738 20.2566 7.48828 21.267 7.48828C22.2774 7.48828 23.1041 8.30738 23.1041 9.30851Z" fill="#126AE3"/>
<path d="M9.09622 9.35401C9.09622 8.30738 9.92292 7.48828 10.8874 7.48828C11.8978 7.48828 12.7245 8.30738 12.7245 9.30851C12.7245 10.3096 11.8978 11.1287 10.8874 11.1287C9.87699 11.1287 9.05029 10.3551 9.05029 9.35401H9.09622Z" fill="#126AE3"/>
<path d="M23.1041 26.6463C23.1041 27.6019 22.1856 28.4665 21.2211 28.4665C20.2566 28.4665 19.4299 27.6019 19.4299 26.6007C19.4299 25.5996 20.2566 24.7805 21.313 24.826C22.3234 24.826 23.1041 25.6451 23.1041 26.6463Z" fill="#126AE3"/>
<path d="M10.9334 24.8711C11.9897 24.8711 12.7705 25.6902 12.7705 26.6913C12.7705 27.6924 11.8978 28.5115 10.9334 28.5115C9.92295 28.5115 9.09625 27.6469 9.09625 26.6458C9.09625 25.6447 9.87702 24.8711 10.9334 24.8711Z" fill="#126AE3"/>
<path d="M5.8813 16.1797C6.84578 16.1797 7.7184 16.9988 7.7184 17.9089C7.7184 18.8645 6.89171 19.7291 5.92722 19.7746C4.91682 19.7746 4.04419 18.9555 4.04419 17.9544C4.04419 16.9533 4.87089 16.1797 5.8813 16.1797Z" fill="#126AE3"/>
<path d="M24.4821 17.9544C24.4821 16.9533 25.2628 16.1797 26.2732 16.1797C27.2836 16.1797 28.1103 16.9988 28.1103 17.9999C28.1103 18.9555 27.2836 19.7746 26.3192 19.7746C25.3088 19.7746 24.4821 18.9555 24.4821 17.9089V17.9544Z" fill="#126AE3"/>
<path d="M14.5158 13.7218C14.5158 14.2224 14.1024 14.6319 13.5513 14.6319C13.0001 14.6319 12.5868 14.2224 12.5868 13.6763C12.5868 13.1758 13.0461 12.7207 13.5972 12.7207C14.0565 12.7207 14.5158 13.2213 14.5158 13.6763V13.7218Z" fill="#297CEE"/>
<path d="M19.6137 13.6763C19.6137 14.1769 19.2003 14.5864 18.6951 14.6319C18.1899 14.6319 17.7307 14.2224 17.7307 13.7218C17.7307 13.2213 18.1899 12.7207 18.6951 12.7207C19.2003 12.7207 19.6137 13.1758 19.6596 13.6763H19.6137Z" fill="#297CEE"/>
<path d="M13.5513 23.187C13.0001 23.187 12.5868 22.7775 12.5868 22.2769C12.5868 21.7308 13.0461 21.3213 13.5513 21.3213C14.1024 21.3213 14.5158 21.7763 14.4698 22.2769C14.4698 22.823 14.0565 23.187 13.5053 23.187H13.5513Z" fill="#297CEE"/>
<path d="M18.6951 21.3213C19.2003 21.3213 19.6137 21.7308 19.6137 22.2769C19.6137 22.823 19.2003 23.2325 18.6492 23.187C18.144 23.187 17.7307 22.7775 17.7307 22.2769C17.7307 21.7763 18.1899 21.3213 18.7411 21.3213H18.6951Z" fill="#297CEE"/>
<path d="M21.1293 17.0898C21.6804 17.0898 22.0938 17.4994 22.0938 18C22.0938 18.5005 21.6804 18.9101 21.1752 18.9556C20.6241 18.9556 20.2108 18.5005 20.2108 18C20.2108 17.5449 20.67 17.1353 21.1752 17.1353L21.1293 17.0898Z" fill="#297CEE"/>
<path d="M11.9897 17.9545C11.9897 18.5005 11.6222 18.9101 11.117 18.9101C10.5659 18.9101 10.1066 18.5005 10.1066 18C10.1066 17.4994 10.52 17.0898 11.0711 17.0898C11.6222 17.0898 11.9897 17.4539 11.9897 18V17.9545Z" fill="#297CEE"/>
</svg>
