<svg width="49" height="51" viewBox="0 0 49 51" fill="none" xmlns="http://www.w3.org/2000/svg">
<g clip-path="url(#clip0_890_8826)">
<path d="M48.4969 37.4669C48.4969 30.5943 48.4985 23.7218 48.4954 16.8492C48.4954 15.1008 47.472 14.1106 45.6854 14.1091C43.1088 14.106 40.5337 14.0953 37.9571 14.1199C37.4777 14.1245 37.3784 13.9848 37.38 13.5442C37.3989 10.5001 37.3942 7.45606 37.3894 4.41353C37.3847 1.73175 35.6044 0.00170983 32.8528 0.000174748C27.288 -0.00136033 21.7232 -0.00136033 16.1584 0.000174748C13.4115 0.000174748 11.6344 1.73328 11.6297 4.41967C11.6249 7.46374 11.6186 10.5078 11.6391 13.5503C11.6423 14.0047 11.5193 14.1214 11.0541 14.1183C8.45856 14.0953 5.86303 14.106 3.2675 14.1091C2.9537 14.1091 2.64306 14.1091 2.33399 14.2027C1.14503 14.5666 0.52374 15.4738 0.52374 16.903C0.522163 25.2093 0.552124 33.5156 0.500087 41.8219C0.487472 43.7669 1.85304 44.7094 3.44095 44.6925C8.5721 44.6373 13.7048 44.6818 18.8375 44.6588C19.4304 44.6557 19.4998 44.7877 19.3453 45.3188C19.0173 46.4579 18.7571 47.6153 18.4985 48.7712C18.4307 49.0752 18.3046 49.1734 17.9908 49.1658C17.1661 49.1458 16.3398 49.1535 15.5135 49.1611C14.8528 49.1673 14.4523 49.5065 14.4365 50.05C14.4207 50.6195 14.8323 50.994 15.5151 50.9956C21.493 50.9986 27.4709 50.9986 33.4488 50.9956C34.1237 50.9956 34.5542 50.6087 34.5353 50.0515C34.518 49.5158 34.1048 49.1688 33.452 49.1627C32.6462 49.155 31.8389 49.1458 31.0331 49.1688C30.7366 49.1765 30.6262 49.0798 30.5726 48.8096C30.2998 47.4449 30.0128 46.0833 29.7211 44.6726H30.4023C35.535 44.6726 40.6678 44.6756 45.7989 44.671C47.4436 44.671 48.4827 43.661 48.4954 42.0568C48.5064 40.5263 48.4985 38.9974 48.4985 37.4669H48.4969ZM13.5156 15.3356C13.5156 11.7174 13.5156 8.1008 13.5156 4.48415C13.5156 2.72955 14.4318 1.84074 16.2294 1.84074C21.7737 1.84074 27.3195 1.84074 32.8638 1.84074C34.5495 1.84074 35.5019 2.75411 35.5019 4.3859C35.5051 11.6791 35.5051 18.9707 35.5019 26.2639C35.5019 27.8588 34.54 28.8014 32.9064 28.8029C27.3022 28.8075 21.6996 28.8075 16.0954 28.8029C14.4901 28.8014 13.5203 27.8573 13.5172 26.3053C13.5124 22.6488 13.5156 18.9937 13.5156 15.3372V15.3356ZM2.40968 17.0872C2.40968 16.0003 2.46802 15.9451 3.57656 15.9451C6.07433 15.9451 8.5721 15.9589 11.0683 15.9328C11.5524 15.9282 11.6407 16.0755 11.6375 16.51C11.6186 19.726 11.6927 22.9435 11.606 26.158C11.5413 28.6018 13.4099 30.6757 16.2231 30.6527C21.7484 30.6097 27.2754 30.6097 32.8007 30.6527C35.6628 30.6742 37.4762 28.5542 37.4131 26.1534C37.3279 22.9389 37.4005 19.7214 37.3816 16.5054C37.3784 16.0633 37.4809 15.9282 37.9555 15.9328C40.5117 15.9573 43.0678 15.9435 45.6239 15.9451C46.4501 15.9451 46.6078 16.1016 46.6078 16.9352C46.6094 23.6159 46.6031 30.2965 46.6205 36.9787C46.6205 37.4239 46.4864 37.5053 46.0607 37.5053C38.8638 37.493 31.667 37.4961 24.4685 37.4961C17.3505 37.4961 10.231 37.4869 3.11296 37.513C2.49168 37.5145 2.39391 37.338 2.39549 36.7869C2.41599 30.2213 2.4081 23.6542 2.4081 17.0887L2.40968 17.0872ZM28.3098 49.1704C27.0341 49.1473 25.7584 49.1611 24.4827 49.1611C23.2071 49.1611 22.0496 49.1504 20.8323 49.1673C20.4649 49.1719 20.3119 49.1427 20.4318 48.7098C20.7613 47.514 21.0483 46.3059 21.3195 45.0963C21.4 44.7386 21.5671 44.6618 21.9156 44.6649C23.7211 44.6818 25.5266 44.6787 27.3321 44.6664C27.6428 44.6649 27.8147 44.7017 27.8809 45.0579C28.1111 46.2952 28.376 47.5278 28.6473 48.7574C28.7166 49.0721 28.6756 49.175 28.3098 49.1688V49.1704ZM46.6205 39.9092C46.5763 40.6338 46.6063 41.3629 46.6094 42.089C46.611 42.5849 46.3587 42.8305 45.8525 42.8335C45.7153 42.8335 45.5781 42.8335 45.4394 42.8335C31.4856 42.8335 17.5303 42.8335 3.57656 42.8335C2.46802 42.8335 2.41126 42.7783 2.40968 41.6976C2.40968 41.0283 2.41914 40.3575 2.40495 39.6882C2.39864 39.4149 2.49325 39.2998 2.77709 39.329C2.9127 39.3428 3.05147 39.3305 3.19023 39.3305H24.5332C31.6875 39.3305 38.8417 39.3351 45.996 39.3197C46.4738 39.3197 46.652 39.4149 46.622 39.9061L46.6205 39.9092Z" fill="#414141"/>
<path d="M21.5639 15.8467C22.5463 15.8483 23.5303 15.8467 24.5127 15.8467C25.555 15.8467 26.5973 15.8467 27.6396 15.8467C27.679 15.8467 27.7184 15.8467 27.7579 15.8467C29.0446 15.8053 30.0822 14.8873 30.1657 13.6869C30.2903 11.9 29.7999 10.3189 28.4485 9.04786C28.2672 8.87746 28.1773 8.73931 28.2609 8.46299C28.447 7.84589 28.4138 7.21343 28.2372 6.59326C27.6696 4.58998 25.6559 3.4356 23.5728 3.91301C21.5907 4.36739 20.3387 6.29699 20.714 8.29567C20.7581 8.529 20.9158 8.74852 20.6194 9.00948C19.3484 10.1316 18.8422 11.5807 18.847 13.2248C18.8517 14.8904 19.8341 15.8421 21.5639 15.8467ZM24.5237 5.63998C25.5818 5.64919 26.4696 6.50116 26.4964 7.53427C26.5232 8.57352 25.618 9.45772 24.5237 9.46386C23.4293 9.47154 22.5148 8.60268 22.5211 7.5619C22.5258 6.51344 23.4451 5.6323 24.5237 5.63998ZM21.6033 10.6551C21.7799 10.4448 21.9045 10.3972 22.1694 10.5783C23.7195 11.6391 25.2932 11.6421 26.8464 10.5829C27.1035 10.4079 27.2296 10.4371 27.411 10.6566C28.1032 11.4886 28.3508 12.4465 28.2735 13.4935C28.2435 13.9002 27.9518 14.0169 27.5702 14.0138C26.5295 14.0077 25.4903 14.0108 24.4496 14.0123C23.4688 14.0123 22.4864 14 21.5056 14.0169C20.9552 14.0261 20.7282 13.8035 20.7282 13.2647C20.7313 12.2976 20.9615 11.418 21.6018 10.6566L21.6033 10.6551Z" fill="#414141"/>
<path d="M17.0461 26.8395C17.1438 26.8425 17.2432 26.8395 17.341 26.8395C22.1189 26.8395 26.8968 26.8395 31.6763 26.8364C31.9302 26.8364 32.1951 26.8333 32.4332 26.7643C32.8858 26.6322 33.1002 26.2853 33.0624 25.8432C33.0245 25.4042 32.7691 25.0956 32.2944 25.0265C32.1021 24.9989 31.9018 25.002 31.7063 25.002C29.3078 25.002 26.9078 25.002 24.5094 25.002C22.0322 25.002 19.5549 24.9989 17.076 25.0035C16.3743 25.005 15.9486 25.352 15.9391 25.8985C15.9297 26.4465 16.3601 26.8118 17.0461 26.8395Z" fill="#414141"/>
<path d="M17.1328 19.7654C19.5864 19.7669 22.0416 19.7654 24.4952 19.7654C26.9488 19.7654 29.404 19.7654 31.8576 19.7639C32.0894 19.7639 32.326 19.7946 32.5467 19.6702C32.9504 19.4446 33.1333 19.1161 33.0419 18.6678C32.9394 18.1674 32.5672 17.9279 31.8829 17.9279C26.9741 17.9264 22.0653 17.9264 17.1565 17.9279C16.3838 17.9279 15.9281 18.2871 15.9407 18.8689C15.9533 19.4369 16.3822 19.7639 17.1312 19.7639L17.1328 19.7654Z" fill="#414141"/>
<path d="M32.1116 21.474C32.0139 21.4679 31.9161 21.4709 31.8168 21.4709C26.9474 21.4709 22.078 21.4709 17.2086 21.4709C17.0509 21.4709 16.8917 21.4602 16.7387 21.4863C16.2767 21.5661 16.0039 21.8516 15.9566 22.2953C15.9124 22.7144 16.1079 23.029 16.5069 23.2179C16.7308 23.3238 16.9642 23.3084 17.1991 23.3084C19.6338 23.3084 22.0685 23.3084 24.5032 23.3084C26.6241 23.3084 28.745 23.3084 30.8643 23.3084C31.2759 23.3084 31.689 23.3222 32.1006 23.3038C32.6856 23.2762 33.0893 22.8709 33.0735 22.3613C33.0578 21.8639 32.6714 21.5078 32.1101 21.474H32.1116Z" fill="#414141"/>
<path d="M43.2396 40.1823C42.7492 40.1608 42.2557 40.1593 41.7668 40.1854C41.2686 40.2115 40.9689 40.5047 40.9153 40.9806C40.8586 41.4856 41.1109 41.8371 41.6202 41.9569C41.9025 42.0229 42.2036 42.0075 42.4954 42.029C42.4954 42.0168 42.4954 42.006 42.4954 41.9937C42.7697 41.9937 43.0488 42.0229 43.3185 41.9876C43.8436 41.9185 44.181 41.5178 44.1574 41.042C44.1337 40.5569 43.7774 40.2054 43.2365 40.1823H43.2396Z" fill="#414141"/>
<path d="M33.9154 40.1839C33.6821 40.1654 33.4471 40.1808 33.2121 40.1808C33.2121 40.1808 33.2121 40.1823 33.2121 40.1839C32.9583 40.1839 32.7028 40.167 32.4505 40.1869C31.9491 40.2299 31.6637 40.5339 31.6132 40.9944C31.5627 41.4611 31.7961 41.8264 32.2755 41.94C32.8668 42.0797 33.4818 42.0705 34.0747 41.9492C34.5825 41.8464 34.8269 41.4718 34.7669 40.9729C34.7118 40.5047 34.4121 40.2207 33.9154 40.1823V40.1839Z" fill="#414141"/>
<path d="M38.6367 40.1897C38.3828 40.1667 38.1258 40.1851 37.8719 40.1851C37.8719 40.1851 37.8719 40.182 37.8719 40.1805C37.637 40.1805 37.3989 40.1636 37.1655 40.1836C36.6672 40.225 36.3676 40.509 36.3156 40.9833C36.2604 41.4869 36.5127 41.8568 37.0252 41.9551C37.6023 42.0671 38.2015 42.0717 38.7786 41.9474C39.2643 41.843 39.5072 41.4792 39.4662 41.011C39.4252 40.5489 39.1445 40.2342 38.6383 40.1882L38.6367 40.1897Z" fill="#414141"/>
</g>
<defs>
<clipPath id="clip0_890_8826">
<rect width="48" height="51" fill="white" transform="translate(0.5)"/>
</clipPath>
</defs>
</svg>
