<svg width="48" height="51" viewBox="0 0 48 51" fill="none" xmlns="http://www.w3.org/2000/svg">
<g clip-path="url(#clip0_890_8790)">
<path d="M47.9969 37.4669C47.9969 30.5943 47.9985 23.7218 47.9954 16.8492C47.9954 15.1008 46.972 14.1106 45.1854 14.1091C42.6088 14.106 40.0337 14.0953 37.4571 14.1199C36.9777 14.1245 36.8784 13.9848 36.88 13.5442C36.8989 10.5001 36.8942 7.45606 36.8894 4.41353C36.8847 1.73175 35.1044 0.00170983 32.3528 0.000174748C26.788 -0.00136033 21.2232 -0.00136033 15.6584 0.000174748C12.9115 0.000174748 11.1344 1.73328 11.1297 4.41967C11.1249 7.46374 11.1186 10.5078 11.1391 13.5503C11.1423 14.0047 11.0193 14.1214 10.5541 14.1183C7.95856 14.0953 5.36303 14.106 2.7675 14.1091C2.4537 14.1091 2.14306 14.1091 1.83399 14.2027C0.645028 14.5666 0.0237398 15.4738 0.0237398 16.903C0.0221629 25.2093 0.0521235 33.5156 8.67128e-05 41.8219C-0.0125283 43.7669 1.35304 44.7094 2.94095 44.6925C8.0721 44.6373 13.2048 44.6818 18.3375 44.6588C18.9304 44.6557 18.9998 44.7877 18.8453 45.3188C18.5173 46.4579 18.2571 47.6153 17.9985 48.7712C17.9307 49.0752 17.8046 49.1734 17.4908 49.1658C16.6661 49.1458 15.8398 49.1535 15.0135 49.1611C14.3528 49.1673 13.9523 49.5065 13.9365 50.05C13.9207 50.6195 14.3323 50.994 15.0151 50.9956C20.993 50.9986 26.9709 50.9986 32.9488 50.9956C33.6237 50.9956 34.0542 50.6087 34.0353 50.0515C34.018 49.5158 33.6048 49.1688 32.952 49.1627C32.1462 49.155 31.3389 49.1458 30.5331 49.1688C30.2366 49.1765 30.1262 49.0798 30.0726 48.8096C29.7998 47.4449 29.5128 46.0833 29.2211 44.6726H29.9023C35.035 44.6726 40.1678 44.6756 45.2989 44.671C46.9436 44.671 47.9827 43.661 47.9954 42.0568C48.0064 40.5263 47.9985 38.9974 47.9985 37.4669H47.9969ZM13.0156 15.3356C13.0156 11.7174 13.0156 8.1008 13.0156 4.48415C13.0156 2.72955 13.9318 1.84074 15.7294 1.84074C21.2737 1.84074 26.8195 1.84074 32.3638 1.84074C34.0495 1.84074 35.0019 2.75411 35.0019 4.3859C35.0051 11.6791 35.0051 18.9707 35.0019 26.2639C35.0019 27.8588 34.04 28.8014 32.4064 28.8029C26.8022 28.8075 21.1996 28.8075 15.5954 28.8029C13.9901 28.8014 13.0203 27.8573 13.0172 26.3053C13.0124 22.6488 13.0156 18.9937 13.0156 15.3372V15.3356ZM1.90968 17.0872C1.90968 16.0003 1.96802 15.9451 3.07656 15.9451C5.57433 15.9451 8.0721 15.9589 10.5683 15.9328C11.0524 15.9282 11.1407 16.0755 11.1375 16.51C11.1186 19.726 11.1927 22.9435 11.106 26.158C11.0413 28.6018 12.9099 30.6757 15.7231 30.6527C21.2484 30.6097 26.7754 30.6097 32.3007 30.6527C35.1628 30.6742 36.9762 28.5542 36.9131 26.1534C36.8279 22.9389 36.9005 19.7214 36.8816 16.5054C36.8784 16.0633 36.9809 15.9282 37.4555 15.9328C40.0117 15.9573 42.5678 15.9435 45.1239 15.9451C45.9501 15.9451 46.1078 16.1016 46.1078 16.9352C46.1094 23.6159 46.1031 30.2965 46.1205 36.9787C46.1205 37.4239 45.9864 37.5053 45.5607 37.5053C38.3638 37.493 31.167 37.4961 23.9685 37.4961C16.8505 37.4961 9.73097 37.4869 2.61296 37.513C1.99168 37.5145 1.89391 37.338 1.89549 36.7869C1.91599 30.2213 1.9081 23.6542 1.9081 17.0887L1.90968 17.0872ZM27.8098 49.1704C26.5341 49.1473 25.2584 49.1611 23.9827 49.1611C22.7071 49.1611 21.5496 49.1504 20.3323 49.1673C19.9649 49.1719 19.8119 49.1427 19.9318 48.7098C20.2613 47.514 20.5483 46.3059 20.8195 45.0963C20.9 44.7386 21.0671 44.6618 21.4156 44.6649C23.2211 44.6818 25.0266 44.6787 26.8321 44.6664C27.1428 44.6649 27.3147 44.7017 27.3809 45.0579C27.6111 46.2952 27.876 47.5278 28.1473 48.7574C28.2166 49.0721 28.1756 49.175 27.8098 49.1688V49.1704ZM46.1205 39.9092C46.0763 40.6338 46.1063 41.3629 46.1094 42.089C46.111 42.5849 45.8587 42.8305 45.3525 42.8335C45.2153 42.8335 45.0781 42.8335 44.9394 42.8335C30.9856 42.8335 17.0303 42.8335 3.07656 42.8335C1.96802 42.8335 1.91126 42.7783 1.90968 41.6976C1.90968 41.0283 1.91914 40.3575 1.90495 39.6882C1.89864 39.4149 1.99325 39.2998 2.27709 39.329C2.4127 39.3428 2.55147 39.3305 2.69023 39.3305H24.0332C31.1875 39.3305 38.3417 39.3351 45.496 39.3197C45.9738 39.3197 46.152 39.4149 46.122 39.9061L46.1205 39.9092Z" fill="#105CC4"/>
<path d="M21.0639 15.8467C22.0463 15.8483 23.0303 15.8467 24.0127 15.8467C25.055 15.8467 26.0973 15.8467 27.1396 15.8467C27.179 15.8467 27.2184 15.8467 27.2579 15.8467C28.5446 15.8053 29.5822 14.8873 29.6657 13.6869C29.7903 11.9 29.2999 10.3189 27.9485 9.04786C27.7672 8.87746 27.6773 8.73931 27.7609 8.46299C27.947 7.84589 27.9138 7.21343 27.7372 6.59326C27.1696 4.58998 25.1559 3.4356 23.0728 3.91301C21.0907 4.36739 19.8387 6.29699 20.214 8.29567C20.2581 8.529 20.4158 8.74852 20.1194 9.00948C18.8484 10.1316 18.3422 11.5807 18.347 13.2248C18.3517 14.8904 19.3341 15.8421 21.0639 15.8467ZM24.0237 5.63998C25.0818 5.64919 25.9696 6.50116 25.9964 7.53427C26.0232 8.57352 25.118 9.45772 24.0237 9.46386C22.9293 9.47154 22.0148 8.60268 22.0211 7.5619C22.0258 6.51344 22.9451 5.6323 24.0237 5.63998ZM21.1033 10.6551C21.2799 10.4448 21.4045 10.3972 21.6694 10.5783C23.2195 11.6391 24.7932 11.6421 26.3464 10.5829C26.6035 10.4079 26.7296 10.4371 26.911 10.6566C27.6032 11.4886 27.8508 12.4465 27.7735 13.4935C27.7435 13.9002 27.4518 14.0169 27.0702 14.0138C26.0295 14.0077 24.9903 14.0108 23.9496 14.0123C22.9688 14.0123 21.9864 14 21.0056 14.0169C20.4552 14.0261 20.2282 13.8035 20.2282 13.2647C20.2313 12.2976 20.4615 11.418 21.1018 10.6566L21.1033 10.6551Z" fill="#105CC4"/>
<path d="M16.5461 26.8395C16.6438 26.8425 16.7432 26.8395 16.841 26.8395C21.6189 26.8395 26.3968 26.8395 31.1763 26.8364C31.4302 26.8364 31.6951 26.8333 31.9332 26.7643C32.3858 26.6322 32.6002 26.2853 32.5624 25.8432C32.5245 25.4042 32.2691 25.0956 31.7944 25.0265C31.6021 24.9989 31.4018 25.002 31.2063 25.002C28.8078 25.002 26.4078 25.002 24.0094 25.002C21.5322 25.002 19.0549 24.9989 16.576 25.0035C15.8743 25.005 15.4486 25.352 15.4391 25.8985C15.4297 26.4465 15.8601 26.8118 16.5461 26.8395Z" fill="#105CC4"/>
<path d="M16.6328 19.7654C19.0864 19.7669 21.5416 19.7654 23.9952 19.7654C26.4488 19.7654 28.904 19.7654 31.3576 19.7639C31.5894 19.7639 31.826 19.7946 32.0467 19.6702C32.4504 19.4446 32.6333 19.1161 32.5419 18.6678C32.4394 18.1674 32.0672 17.9279 31.3829 17.9279C26.4741 17.9264 21.5653 17.9264 16.6565 17.9279C15.8838 17.9279 15.4281 18.2871 15.4407 18.8689C15.4533 19.4369 15.8822 19.7639 16.6312 19.7639L16.6328 19.7654Z" fill="#105CC4"/>
<path d="M31.6116 21.474C31.5139 21.4679 31.4161 21.4709 31.3168 21.4709C26.4474 21.4709 21.578 21.4709 16.7086 21.4709C16.5509 21.4709 16.3917 21.4602 16.2387 21.4863C15.7767 21.5661 15.5039 21.8516 15.4566 22.2953C15.4124 22.7144 15.6079 23.029 16.0069 23.2179C16.2308 23.3238 16.4642 23.3084 16.6991 23.3084C19.1338 23.3084 21.5685 23.3084 24.0032 23.3084C26.1241 23.3084 28.245 23.3084 30.3643 23.3084C30.7759 23.3084 31.189 23.3222 31.6006 23.3038C32.1856 23.2762 32.5893 22.8709 32.5735 22.3613C32.5578 21.8639 32.1714 21.5078 31.6101 21.474H31.6116Z" fill="#105CC4"/>
<path d="M42.7396 40.1823C42.2492 40.1608 41.7557 40.1593 41.2668 40.1854C40.7686 40.2115 40.4689 40.5047 40.4153 40.9806C40.3586 41.4856 40.6109 41.8371 41.1202 41.9569C41.4025 42.0229 41.7036 42.0075 41.9954 42.029C41.9954 42.0168 41.9954 42.006 41.9954 41.9937C42.2697 41.9937 42.5488 42.0229 42.8185 41.9876C43.3436 41.9185 43.681 41.5178 43.6574 41.042C43.6337 40.5569 43.2774 40.2054 42.7365 40.1823H42.7396Z" fill="#105CC4"/>
<path d="M33.4154 40.1839C33.1821 40.1654 32.9471 40.1808 32.7121 40.1808C32.7121 40.1808 32.7121 40.1823 32.7121 40.1839C32.4583 40.1839 32.2028 40.167 31.9505 40.1869C31.4491 40.2299 31.1637 40.5339 31.1132 40.9944C31.0627 41.4611 31.2961 41.8264 31.7755 41.94C32.3668 42.0797 32.9818 42.0705 33.5747 41.9492C34.0825 41.8464 34.3269 41.4718 34.2669 40.9729C34.2118 40.5047 33.9121 40.2207 33.4154 40.1823V40.1839Z" fill="#105CC4"/>
<path d="M38.1367 40.1897C37.8828 40.1667 37.6258 40.1851 37.3719 40.1851C37.3719 40.1851 37.3719 40.182 37.3719 40.1805C37.137 40.1805 36.8989 40.1636 36.6655 40.1836C36.1672 40.225 35.8676 40.509 35.8156 40.9833C35.7604 41.4869 36.0127 41.8568 36.5252 41.9551C37.1023 42.0671 37.7015 42.0717 38.2786 41.9474C38.7643 41.843 39.0072 41.4792 38.9662 41.011C38.9252 40.5489 38.6445 40.2342 38.1383 40.1882L38.1367 40.1897Z" fill="#105CC4"/>
</g>
<defs>
<clipPath id="clip0_890_8790">
<rect width="48" height="51" fill="white"/>
</clipPath>
</defs>
</svg>
