<svg width="187" height="45" viewBox="0 0 187 45" fill="none" xmlns="http://www.w3.org/2000/svg">
<path d="M64.3345 41.2963V29.7303C62.7545 31.5632 60.2899 32.7008 57.6356 32.7008C51.6951 32.7008 47.3345 28.2767 47.3345 22.3357C47.3345 16.7107 51.8215 12.0337 57.8252 12.0337C63.8289 12.0337 68.3159 16.4578 68.3159 22.3357V41.2331H64.3345V41.2963ZM64.3345 22.3989C64.3345 18.7963 61.4906 15.889 57.8252 15.889C54.1597 15.889 51.3159 18.7963 51.3159 22.3989C51.3159 26.0014 54.1597 28.9719 57.8252 28.9719C61.4906 28.9719 64.3345 25.9382 64.3345 22.3989Z" fill="white"/>
<path d="M70.7805 41.2963V22.3357C70.7805 16.4578 75.3307 12.0337 81.2712 12.0337C87.2117 12.0337 91.6987 16.7107 91.6987 22.3357C91.6987 28.2767 87.4013 32.7008 81.3976 32.7008C78.7433 32.7008 76.3418 31.5632 74.6987 29.7935V41.2963H70.7173H70.7805ZM87.7173 22.3989C87.7173 18.7963 84.8734 15.889 81.2712 15.889C77.669 15.889 74.7619 18.7963 74.7619 22.3989C74.7619 26.0014 77.6058 28.9719 81.2712 28.9719C84.9366 28.9719 87.7173 25.9382 87.7173 22.3989Z" fill="white"/>
<path d="M93.7842 32.2585V20.5029C93.7842 15.6995 96.5017 12.1602 101.684 12.1602C102.948 12.1602 104.212 12.413 105.223 12.8554V16.7739C104.275 16.2051 103.137 15.9523 102.063 15.9523C99.4087 15.9523 97.8288 17.7852 97.8288 20.6293V32.1953H93.8474L93.7842 32.2585Z" fill="white"/>
<path d="M104.464 22.3357C104.464 16.6475 109.078 12.0337 115.018 12.0337C120.959 12.0337 125.446 16.7107 125.446 22.3357C125.446 27.9607 120.896 32.7008 115.018 32.7008C109.141 32.7008 104.464 28.0239 104.464 22.3357ZM121.464 22.3357C121.464 18.7331 118.684 15.7626 115.018 15.7626C111.353 15.7626 108.446 18.7331 108.446 22.3357C108.446 25.9382 111.29 28.9087 115.018 28.9087C118.747 28.9087 121.464 25.9382 121.464 22.3357Z" fill="white"/>
<path d="M124.119 32.2582L129.112 24.8003C129.68 23.9155 129.996 23.157 129.996 22.3986C129.996 21.7034 129.744 21.0082 129.175 20.1865L124.119 12.5391H128.606L132.651 18.5433C133.03 19.1753 133.346 19.8073 133.535 20.5025H135.684C135.874 19.8073 136.19 19.1121 136.569 18.5433L140.55 12.5391H145.101L140.045 20.1865C139.476 21.0082 139.223 21.7034 139.223 22.3986C139.223 23.157 139.476 23.9155 140.108 24.8003L145.101 32.2582H140.614L136.569 26.3172C136.127 25.6219 135.811 24.9267 135.621 24.1683H133.662C133.472 24.9267 133.156 25.6219 132.714 26.3172L128.669 32.2582H124.182H124.119Z" fill="white"/>
<path d="M146.364 6.02949C146.364 4.57584 147.565 3.375 148.955 3.375C150.346 3.375 151.546 4.57584 151.546 6.02949C151.546 7.48315 150.409 8.62079 148.955 8.62079C147.502 8.62079 146.364 7.48315 146.364 6.02949ZM150.978 12.5393V32.1952H146.996V12.5393H150.978Z" fill="white"/>
<path d="M187 21.8932V32.2584H183.019V22.5253C183.019 18.9859 181.249 15.8258 177.52 15.8258C173.792 15.8258 172.149 18.8595 172.149 22.4621V32.2584H168.167V22.4621C168.167 18.8595 166.335 15.8258 162.669 15.8258C159.004 15.8258 157.361 18.9859 157.361 22.5253V32.2584H153.379V21.9564C153.379 16.4578 156.539 12.0337 162.416 12.0337C166.335 12.0337 169.178 14.0562 170.19 17.0899C171.264 14.0562 174.045 12.0337 177.773 12.0337C183.714 12.0337 186.937 16.4578 186.937 21.8932H187Z" fill="white"/>
<path d="M37.8833 13.7404C37.8833 15.7882 36.0632 17.1534 34.0156 16.6414C33.5606 16.5276 33.1056 16.357 32.5937 16.3001C31.1717 16.0157 30.3755 16.5845 29.9773 17.9497C29.9204 18.2341 29.8636 18.5185 29.6929 18.8029C29.2379 19.8268 28.1004 20.225 27.0766 19.8268C26.0528 19.4286 25.5409 18.3479 25.8821 17.2671C26.2234 16.2432 27.1903 15.6744 28.271 15.9019C28.5554 15.9588 28.8398 16.0726 29.1242 16.0726C30.2617 16.2432 31.1149 15.7313 31.5699 14.6505C31.7405 14.1955 31.7974 13.7404 31.8543 13.2854C32.0818 11.6358 33.3899 10.555 35.1531 10.7257C36.632 10.8394 37.8264 12.2046 37.8264 13.7404H37.8833Z" fill="white"/>
<path d="M1.99365 13.7966C1.99365 12.2039 3.1312 10.8956 4.61001 10.725C6.20257 10.5544 7.56763 11.4645 7.96577 13.0572C8.07953 13.5122 8.1364 13.9104 8.25016 14.3654C8.59142 15.6737 9.50146 16.2426 10.8096 16.0719C11.2078 16.015 11.6628 15.9013 12.0609 15.9013C13.1416 15.9013 13.9948 16.5838 14.1654 17.7215C14.2792 18.6885 13.5966 19.6555 12.5728 19.9399C11.6059 20.2243 10.5821 19.6555 10.184 18.6316C10.0702 18.4041 10.0134 18.1197 9.95648 17.8353C9.44458 16.4132 8.42079 15.8444 6.99886 16.2994C6.31633 16.4701 5.69068 16.7545 4.95127 16.7545C3.30183 16.6976 1.99365 15.3893 1.99365 13.7966Z" fill="white"/>
<path d="M1.99365 31.2604C1.99365 29.2126 3.81373 27.8474 5.86131 28.3594C6.1457 28.4163 6.48696 28.53 6.77135 28.6438C8.42079 29.1557 9.44458 28.5869 9.95648 26.9373C10.0134 26.6529 10.1271 26.3685 10.2409 26.0841C10.6959 25.174 11.7197 24.7758 12.6297 25.0602C13.5397 25.3446 14.1654 26.3685 14.0516 27.2786C13.881 28.3025 13.0847 29.042 12.0609 29.042C11.6059 29.042 11.2078 28.9282 10.7528 28.8144C9.55834 28.5869 8.59142 29.1557 8.19328 30.3502C8.02265 30.8622 7.96577 31.3741 7.85202 31.8861C7.45388 33.4219 6.08882 34.332 4.61001 34.1613C3.18808 34.0476 1.99365 32.7393 1.99365 31.2604Z" fill="white"/>
<path d="M37.8833 31.2029C37.8833 32.7387 36.7458 34.047 35.267 34.2177C33.7882 34.3883 32.3662 33.4782 31.9681 32.0561C31.8543 31.6011 31.7974 31.0891 31.6837 30.6341C31.3424 29.212 30.3755 28.5863 28.9536 28.9276C28.2142 29.0983 27.5316 29.212 26.7922 28.8139C26.0528 28.3588 25.6547 27.5625 25.8253 26.6523C25.996 25.856 26.6785 25.1734 27.4748 25.0596C28.3848 24.9459 29.1811 25.3441 29.5792 26.1404C29.7499 26.4817 29.8067 26.823 29.9205 27.1643C30.3755 28.6432 31.4562 29.1552 32.935 28.757C33.3331 28.6432 33.7882 28.4726 34.1863 28.3588C36.0632 27.9606 37.8264 29.3827 37.8264 31.3167L37.8833 31.2029Z" fill="white"/>
<path d="M20.024 2.25C21.2184 2.25 22.1853 2.93258 22.6972 4.18399C23.1522 5.26475 22.8678 6.57303 22.0147 7.36938C21.6734 7.71067 21.2753 8.05197 20.8771 8.39326C20.024 9.24649 20.024 10.3841 20.7634 11.2942C20.9909 11.5787 21.2184 11.8062 21.4459 12.0337C22.1853 12.8869 22.1853 14.0246 21.389 14.8209C20.6496 15.6173 19.3983 15.6173 18.602 14.8778C17.8058 14.1383 17.692 12.9438 18.4314 12.0906C18.6589 11.8062 18.9433 11.5218 19.1708 11.2374C19.9102 10.3272 19.8533 9.18961 19.0571 8.33638C18.6589 7.9382 18.2608 7.59691 17.8626 7.19874C17.0095 6.28862 16.8388 5.20787 17.2939 4.07022C17.7489 2.98947 18.8296 2.25 20.024 2.25Z" fill="white"/>
<path d="M20.2514 42.7506C18.8294 42.7506 17.6919 42.0112 17.2937 40.9873C16.8387 39.7928 16.9525 38.712 17.8056 37.745C18.1469 37.3468 18.6019 37.0055 18.9432 36.6642C19.8532 35.7541 19.8532 34.5027 19.0001 33.5357C18.8294 33.3082 18.6019 33.1376 18.3744 32.91C17.635 32.0568 17.6919 30.8623 18.4882 30.1228C19.1707 29.4402 20.4789 29.3834 21.1614 30.0091C22.0714 30.8623 22.1852 31.943 21.4458 32.8532C21.2183 33.1376 20.9339 33.422 20.7064 33.7064C19.9101 34.6734 19.967 35.7541 20.8201 36.6074C21.2183 37.0055 21.6733 37.3468 22.0714 37.8019C22.9246 38.7689 23.0383 39.8496 22.5833 40.9873C22.1283 42.1249 21.2183 42.6937 20.2514 42.7506Z" fill="white"/>
<path d="M28.6122 11.6356C28.6122 12.9439 27.6453 13.9109 26.3371 13.9109C25.0858 13.9109 24.062 12.887 24.062 11.6356C24.062 10.3842 25.0858 9.36035 26.3371 9.36035C27.5884 9.36035 28.6122 10.3842 28.6122 11.6356Z" fill="white"/>
<path d="M11.2649 11.6925C11.2649 10.3842 12.2887 9.36035 13.4831 9.36035C14.7344 9.36035 15.7582 10.3842 15.7582 11.6356C15.7582 12.887 14.7344 13.9109 13.4831 13.9109C12.2318 13.9109 11.208 12.9439 11.208 11.6925H11.2649Z" fill="white"/>
<path d="M28.6122 33.3081C28.6122 34.5026 27.4746 35.5833 26.2802 35.5833C25.0858 35.5833 24.062 34.5026 24.062 33.2512C24.062 31.9998 25.0858 30.9759 26.394 31.0328C27.6453 31.0328 28.6122 32.0567 28.6122 33.3081Z" fill="white"/>
<path d="M13.5397 31.0891C14.8479 31.0891 15.8148 32.113 15.8148 33.3644C15.8148 34.6158 14.7342 35.6397 13.5397 35.6397C12.2884 35.6397 11.2646 34.5589 11.2646 33.3075C11.2646 32.0561 12.2316 31.0891 13.5397 31.0891Z" fill="white"/>
<path d="M7.28339 20.2246C8.47782 20.2246 9.55849 21.2485 9.55849 22.3861C9.55849 23.5806 8.53469 24.6614 7.34027 24.7183C6.08897 24.7183 5.0083 23.6944 5.0083 22.443C5.0083 21.1916 6.03209 20.2246 7.28339 20.2246Z" fill="white"/>
<path d="M30.3184 22.443C30.3184 21.1916 31.2853 20.2246 32.5366 20.2246C33.7879 20.2246 34.8117 21.2485 34.8117 22.4999C34.8117 23.6944 33.7879 24.7183 32.5935 24.7183C31.3422 24.7183 30.3184 23.6944 30.3184 22.3861V22.443Z" fill="white"/>
<path d="M17.9762 17.1528C17.9762 17.7785 17.4644 18.2904 16.7818 18.2904C16.0993 18.2904 15.5874 17.7785 15.5874 17.0959C15.5874 16.4702 16.1562 15.9014 16.8387 15.9014C17.4075 15.9014 17.9762 16.5271 17.9762 17.0959V17.1528Z" fill="white"/>
<path d="M24.2895 17.0959C24.2895 17.7216 23.7776 18.2335 23.1519 18.2904C22.5263 18.2904 21.9575 17.7785 21.9575 17.1528C21.9575 16.5271 22.5263 15.9014 23.1519 15.9014C23.7776 15.9014 24.2895 16.4702 24.3464 17.0959H24.2895Z" fill="white"/>
<path d="M16.7818 28.984C16.0993 28.984 15.5874 28.4721 15.5874 27.8464C15.5874 27.1638 16.1562 26.6519 16.7818 26.6519C17.4644 26.6519 17.9762 27.2207 17.9194 27.8464C17.9194 28.529 17.4075 28.984 16.7249 28.984H16.7818Z" fill="white"/>
<path d="M23.1519 26.6519C23.7776 26.6519 24.2895 27.1638 24.2895 27.8464C24.2895 28.529 23.7776 29.0409 23.0951 28.984C22.4694 28.984 21.9575 28.4721 21.9575 27.8464C21.9575 27.2207 22.5263 26.6519 23.2088 26.6519H23.1519Z" fill="white"/>
<path d="M26.1664 21.3623C26.8489 21.3623 27.3608 21.8742 27.3608 22.4999C27.3608 23.1256 26.8489 23.6376 26.2232 23.6945C25.5407 23.6945 25.0288 23.1256 25.0288 22.4999C25.0288 21.9311 25.5976 21.4192 26.2232 21.4192L26.1664 21.3623Z" fill="white"/>
<path d="M14.8481 22.4431C14.8481 23.1256 14.3931 23.6376 13.7674 23.6376C13.0849 23.6376 12.5161 23.1256 12.5161 22.4999C12.5161 21.8742 13.028 21.3623 13.7105 21.3623C14.3931 21.3623 14.8481 21.8174 14.8481 22.4999V22.4431Z" fill="white"/>
</svg>
