<svg width="187" height="42" viewBox="0 0 187 42" fill="none" xmlns="http://www.w3.org/2000/svg">
<path d="M45.5394 33.5908V8.23438H49.0029V23.4614H51.1006C51.2713 23.0332 51.5559 22.6461 51.9055 22.292L57.3936 16.2391H61.6214L54.2471 24.3838C54.0357 24.5567 53.93 24.705 53.93 24.8779C53.93 25.0508 54.0357 25.1991 54.2471 25.372L61.5889 33.5908H57.3204L51.8649 27.5379C51.5153 27.1097 51.2388 26.6897 51.0599 26.2285H48.9948V33.5908H45.5312H45.5394Z" fill="white"/>
<path d="M75.9945 24.5932V16.2344H79.458V25.0132C79.458 30.045 76.4498 34.0061 71.0674 34.0061C65.6851 34.0061 62.75 30.0038 62.75 24.9803V16.2344H66.2136V24.6261C66.2136 27.8132 67.9291 30.6132 71.0756 30.6132C74.222 30.6132 76.0026 27.8132 76.0026 24.5932H75.9945Z" fill="white"/>
<path d="M80.7816 33.5887V23.2452C80.7816 19.0287 83.1557 15.8828 87.6355 15.8828C88.7169 15.8828 89.8389 16.0969 90.7088 16.5169V19.984C89.8714 19.4899 88.8876 19.2428 87.9445 19.2428C85.6354 19.2428 84.237 20.8405 84.237 23.3852V33.5805H80.7734L80.7816 33.5887Z" fill="white"/>
<path d="M90.0859 24.8014C90.0859 19.8108 93.6145 15.7344 98.753 15.7344C103.891 15.7344 107.144 19.5226 107.144 24.3732V25.7897H93.4357C93.8178 28.7626 96.0537 30.8544 99.1351 30.8544C101.233 30.8544 103.119 29.932 104.135 28.0214L106.794 29.405C105.29 32.3779 102.526 33.9756 99.1758 33.9756C93.9642 33.9756 90.0859 30.1544 90.0859 24.8014ZM103.688 23.525C103.55 20.7661 101.558 18.8885 98.7205 18.8885C95.8829 18.8885 93.9316 20.9391 93.582 23.525H103.688Z" fill="white"/>
<path d="M111.94 25.2003V33.5921H108.477V24.8462C108.477 19.7815 111.452 15.8203 116.973 15.8203C122.493 15.8203 125.607 19.7897 125.607 24.8133V33.5921H122.144V25.2333C122.144 21.9721 120.396 19.1803 116.973 19.1803C113.55 19.1803 111.94 21.9803 111.94 25.2003Z" fill="white"/>
<path d="M126.688 24.8796C126.688 19.889 130.712 15.8125 135.851 15.8125C140.989 15.8125 144.94 19.9219 144.94 24.8796C144.94 29.8372 140.989 34.0125 135.851 34.0125C130.712 34.0125 126.688 29.9031 126.688 24.8796ZM141.477 24.9125C141.477 21.7254 139.03 19.1066 135.851 19.1066C132.672 19.1066 130.151 21.7254 130.151 24.9125C130.151 28.0996 132.631 30.6854 135.851 30.6854C139.07 30.6854 141.477 28.0666 141.477 24.9125Z" fill="white"/>
<path d="M145.641 24.9421C145.641 19.6633 149.413 15.8092 154.592 15.8092C156.901 15.8092 158.999 16.8386 160.397 18.395L160.43 8.26562H163.893V24.9421C163.893 30.0727 159.942 34.0092 154.771 34.0092C149.6 34.0092 145.649 29.9409 145.649 24.9421H145.641ZM160.43 24.9092C160.43 21.755 157.983 19.1362 154.763 19.1362C151.543 19.1362 149.096 21.755 149.096 24.9092C149.096 28.0633 151.576 30.715 154.763 30.715C157.95 30.715 160.43 28.0962 160.43 24.9092Z" fill="white"/>
<path d="M164.977 24.8014C164.977 19.8108 168.505 15.7344 173.644 15.7344C178.782 15.7344 182.034 19.5226 182.034 24.3732V25.7897H168.326C168.708 28.7626 170.952 30.8544 174.026 30.8544C176.123 30.8544 178.01 29.932 179.026 28.0214L181.685 29.405C180.18 32.3779 177.416 33.9756 174.066 33.9756C168.855 33.9756 164.977 30.1544 164.977 24.8014ZM178.579 23.525C178.441 20.7661 176.449 18.8885 173.611 18.8885C170.774 18.8885 168.822 20.9391 168.473 23.525H178.579Z" fill="white"/>
<path d="M35.5263 12.8224C35.5263 14.7337 33.8193 16.0078 31.8989 15.53C31.4721 15.4239 31.0454 15.2646 30.5653 15.2115C29.2317 14.946 28.4848 15.4769 28.1114 16.7511C28.0581 17.0165 28.0047 17.282 27.8447 17.5474C27.418 18.5031 26.3511 18.8747 25.3909 18.5031C24.4307 18.1314 23.9506 17.1227 24.2706 16.114C24.5907 15.1584 25.4975 14.6275 26.5111 14.8399C26.7778 14.893 27.0445 14.9991 27.3113 14.9991C28.3782 15.1584 29.1783 14.6806 29.6051 13.6719C29.7651 13.2472 29.8185 12.8224 29.8718 12.3977C30.0852 10.8581 31.3121 9.84941 32.9658 10.0087C34.3527 10.1149 35.473 11.389 35.473 12.8224H35.5263Z" fill="white"/>
<path d="M1.86719 12.8781C1.86719 11.3916 2.93408 10.1705 4.32104 10.0112C5.81469 9.85197 7.09496 10.7014 7.46837 12.1879C7.57506 12.6126 7.6284 12.9843 7.73509 13.409C8.05516 14.6301 8.90867 15.161 10.1356 15.0017C10.509 14.9486 10.9358 14.8424 11.3092 14.8424C12.3227 14.8424 13.1229 15.4795 13.2829 16.5413C13.3896 17.4438 12.7495 18.3463 11.7893 18.6118C10.8824 18.8772 9.92222 18.3463 9.54881 17.3907C9.44212 17.1784 9.38877 16.9129 9.33543 16.6475C8.85533 15.3202 7.89512 14.7893 6.56151 15.214C5.92138 15.3733 5.33458 15.6388 4.64111 15.6388C3.09411 15.5857 1.86719 14.3646 1.86719 12.8781Z" fill="white"/>
<path d="M1.86719 29.1759C1.86719 27.2647 3.57421 25.9905 5.49462 26.4684C5.76134 26.5214 6.08141 26.6276 6.34813 26.7338C7.89512 27.2116 8.85533 26.6807 9.33543 25.1411C9.38877 24.8757 9.49546 24.6102 9.60215 24.3448C10.0289 23.4953 10.9891 23.1237 11.8426 23.3891C12.6961 23.6546 13.2829 24.6102 13.1762 25.4596C13.0162 26.4153 12.2694 27.1054 11.3092 27.1054C10.8824 27.1054 10.509 26.9993 10.0823 26.8931C8.96202 26.6807 8.05516 27.2116 7.68175 28.3265C7.52171 28.8043 7.46837 29.2821 7.36168 29.7599C6.98827 31.1934 5.708 32.0428 4.32104 31.8835C2.98742 31.7773 1.86719 30.5563 1.86719 29.1759Z" fill="white"/>
<path d="M35.5255 29.1266C35.5255 30.56 34.4586 31.781 33.0716 31.9403C31.6847 32.0996 30.3511 31.2501 29.9777 29.9229C29.871 29.4982 29.8176 29.0204 29.7109 28.5957C29.3909 27.2684 28.484 26.6844 27.1504 27.003C26.4569 27.1622 25.8168 27.2684 25.1233 26.8968C24.4298 26.4721 24.0564 25.7288 24.2164 24.8794C24.3765 24.1361 25.0166 23.499 25.7634 23.3928C26.617 23.2867 27.3638 23.6583 27.7372 24.4016C27.8972 24.7201 27.9506 25.0386 28.0573 25.3572C28.484 26.7375 29.4976 27.2153 30.8845 26.8437C31.2579 26.7375 31.6847 26.5782 32.0581 26.4721C33.8185 26.1004 35.4722 27.4277 35.4722 29.2327L35.5255 29.1266Z" fill="white"/>
<path d="M18.7752 2.10156C19.8954 2.10156 20.8023 2.73864 21.2824 3.90662C21.7091 4.91533 21.4424 6.13639 20.6422 6.87965C20.3222 7.19819 19.9488 7.51673 19.5754 7.83527C18.7752 8.63162 18.7752 9.69342 19.4687 10.5429C19.682 10.8083 19.8954 11.0207 20.1088 11.233C20.8023 12.0294 20.8023 13.0912 20.0555 13.8344C19.362 14.5777 18.1884 14.5777 17.4416 13.8875C16.6947 13.1973 16.5881 12.0825 17.2815 11.2861C17.4949 11.0207 17.7616 10.7552 17.975 10.4898C18.6685 9.64033 18.6152 8.57853 17.8683 7.78218C17.4949 7.41055 17.1215 7.09201 16.7481 6.72038C15.9479 5.87094 15.7879 4.86224 16.2146 3.80044C16.6414 2.79173 17.655 2.10156 18.7752 2.10156Z" fill="white"/>
<path d="M18.9893 39.9005C17.6557 39.9005 16.5888 39.2103 16.2154 38.2547C15.7886 37.1398 15.8953 36.1311 16.6955 35.2285C17.0156 34.8569 17.4423 34.5384 17.7624 34.2198C18.6159 33.3704 18.6159 32.2024 17.8157 31.2999C17.6557 31.0875 17.4423 30.9283 17.2289 30.7159C16.5355 29.9196 16.5888 28.8047 17.3356 28.1145C17.9758 27.4774 19.2027 27.4243 19.8428 28.0083C20.6963 28.8047 20.803 29.8134 20.1095 30.6628C19.8962 30.9283 19.6294 31.1937 19.4161 31.4592C18.6692 32.3617 18.7226 33.3704 19.5227 34.1667C19.8962 34.5384 20.3229 34.8569 20.6963 35.2816C21.4965 36.1842 21.6032 37.1929 21.1764 38.2547C20.7497 39.3165 19.8962 39.8474 18.9893 39.9005Z" fill="white"/>
<path d="M26.8301 10.858C26.8301 12.079 25.9232 12.9816 24.6963 12.9816C23.5227 12.9816 22.5625 12.0259 22.5625 10.858C22.5625 9.68999 23.5227 8.73438 24.6963 8.73438C25.8699 8.73438 26.8301 9.68999 26.8301 10.858Z" fill="white"/>
<path d="M10.5612 10.9111C10.5612 9.68999 11.5214 8.73438 12.6416 8.73438C13.8152 8.73438 14.7754 9.68999 14.7754 10.858C14.7754 12.0259 13.8152 12.9816 12.6416 12.9816C11.468 12.9816 10.5078 12.079 10.5078 10.9111H10.5612Z" fill="white"/>
<path d="M26.8301 31.0866C26.8301 32.2015 25.7632 33.2102 24.6429 33.2102C23.5227 33.2102 22.5625 32.2015 22.5625 31.0336C22.5625 29.8656 23.5227 28.91 24.7496 28.963C25.9232 28.963 26.8301 29.9187 26.8301 31.0866Z" fill="white"/>
<path d="M12.6963 29.0156C13.9232 29.0156 14.8301 29.9712 14.8301 31.1392C14.8301 32.3072 13.8165 33.2628 12.6963 33.2628C11.5227 33.2628 10.5625 32.2541 10.5625 31.0861C10.5625 29.9182 11.4694 29.0156 12.6963 29.0156Z" fill="white"/>
<path d="M6.8291 18.875C7.94933 18.875 8.96288 19.8306 8.96288 20.8924C8.96288 22.0073 8.00268 23.016 6.88244 23.0691C5.70886 23.0691 4.69531 22.1135 4.69531 20.9455C4.69531 19.7775 5.65551 18.875 6.8291 18.875Z" fill="white"/>
<path d="M28.4297 20.9455C28.4297 19.7775 29.3365 18.875 30.5101 18.875C31.6837 18.875 32.6439 19.8306 32.6439 20.9986C32.6439 22.1135 31.6837 23.0691 30.5635 23.0691C29.3899 23.0691 28.4297 22.1135 28.4297 20.8924V20.9455Z" fill="white"/>
<path d="M16.8577 16.0117C16.8577 16.5957 16.3776 17.0735 15.7374 17.0735C15.0973 17.0735 14.6172 16.5957 14.6172 15.9586C14.6172 15.3746 15.1506 14.8438 15.7908 14.8438C16.3242 14.8438 16.8577 15.4277 16.8577 15.9586V16.0117Z" fill="white"/>
<path d="M22.7809 15.9586C22.7809 16.5426 22.3008 17.0204 21.714 17.0735C21.1272 17.0735 20.5938 16.5957 20.5938 16.0117C20.5938 15.4277 21.1272 14.8438 21.714 14.8438C22.3008 14.8438 22.7809 15.3746 22.8342 15.9586H22.7809Z" fill="white"/>
<path d="M15.7374 27.0517C15.0973 27.0517 14.6172 26.5739 14.6172 25.9899C14.6172 25.3528 15.1506 24.875 15.7374 24.875C16.3776 24.875 16.8577 25.4059 16.8043 25.9899C16.8043 26.627 16.3242 27.0517 15.6841 27.0517H15.7374Z" fill="white"/>
<path d="M21.714 24.875C22.3008 24.875 22.7809 25.3528 22.7809 25.9899C22.7809 26.627 22.3008 27.1048 21.6606 27.0517C21.0739 27.0517 20.5938 26.5739 20.5938 25.9899C20.5938 25.4059 21.1272 24.875 21.7673 24.875H21.714Z" fill="white"/>
<path d="M24.5356 19.9375C25.1758 19.9375 25.6559 20.4153 25.6559 20.9993C25.6559 21.5833 25.1758 22.0611 24.589 22.1142C23.9489 22.1142 23.4688 21.5833 23.4688 20.9993C23.4688 20.4684 24.0022 19.9906 24.589 19.9906L24.5356 19.9375Z" fill="white"/>
<path d="M13.9215 20.9462C13.9215 21.5833 13.4947 22.0611 12.908 22.0611C12.2678 22.0611 11.7344 21.5833 11.7344 20.9993C11.7344 20.4153 12.2145 19.9375 12.8546 19.9375C13.4947 19.9375 13.9215 20.3622 13.9215 20.9993V20.9462Z" fill="white"/>
</svg>
