<svg width="49" height="49" viewBox="0 0 49 49" fill="none" xmlns="http://www.w3.org/2000/svg">
<g clip-path="url(#clip0_890_8811)">
<path d="M19.2796 40.8419C14.7931 40.8406 10.3066 40.8406 5.8201 40.8419C5.44403 40.8419 5.07047 40.8227 4.70569 40.7178C3.34182 40.3277 2.49441 39.1445 2.49316 37.598C2.4894 28.8733 2.4919 20.1485 2.4919 11.4237C2.4919 11.3597 2.4919 11.2958 2.49316 11.2318C2.55207 9.48202 3.7956 8.2093 5.51298 8.1607C6.16859 8.14279 6.82546 8.15686 7.48232 8.15558C8.14002 8.15558 8.47764 8.4873 8.49519 9.15073C8.54158 10.8814 9.8014 12.2321 11.4423 12.2398C15.4913 12.2564 19.539 12.2538 23.588 12.2398C24.8955 12.2347 26.025 11.306 26.391 10.0295C26.5251 9.56004 26.5176 9.08166 26.495 8.60583C26.4787 8.25663 26.5627 8.13256 26.9288 8.14663C27.7097 8.17733 28.492 8.1543 29.2729 8.15686C31.2498 8.16326 32.4983 9.42446 32.5046 11.4327C32.5109 13.3462 32.5021 15.261 32.5084 17.1746C32.5109 17.9024 32.9082 18.3667 33.5074 18.3718C34.1066 18.3756 34.5178 17.9113 34.5203 17.1886C34.5266 15.2265 34.5429 13.2643 34.5178 11.3035C34.4865 8.80665 32.9534 6.82148 30.6418 6.26123C29.565 6.00029 28.4619 6.15122 27.3713 6.12692C26.5151 6.10773 26.5151 6.12308 26.5026 5.27504C26.4913 4.44106 26.1503 4.0957 25.3205 4.09058C24.4768 4.08547 23.6319 4.07907 22.7883 4.0957C22.5075 4.10082 22.3997 4.02407 22.3157 3.7286C21.6739 1.47737 19.7421 -0.00127828 17.492 8.2921e-07C15.2569 0.00127994 13.3364 1.50039 12.6946 3.76441C12.6181 4.0343 12.5016 4.10465 12.2408 4.09826C11.5539 4.07907 10.8632 4.1264 10.1775 4.08419C8.67195 3.99209 8.39867 4.55874 8.49896 5.7854C8.52152 6.05529 8.43878 6.13587 8.16927 6.13204C7.2479 6.11541 6.32403 6.11285 5.40267 6.12948C3.25407 6.17041 1.33863 7.65162 0.714358 9.73656C0.652934 9.93994 0.672991 10.174 0.5 10.3365V38.473C0.52131 38.4947 0.55641 38.5113 0.562678 38.5369C1.20701 41.3983 3.02091 42.8756 5.89155 42.8756C10.2991 42.8756 14.7078 42.8756 19.1153 42.8756C19.272 42.8756 19.4287 42.8846 19.5842 42.868C20.1583 42.8091 20.5394 42.3333 20.4905 41.7475C20.4404 41.1578 20.0254 40.8431 19.2796 40.8431V40.8419ZM10.8832 6.11541C11.6792 6.14099 12.4765 6.12564 13.2738 6.12308C14.1086 6.12052 14.4333 5.82377 14.506 4.977C14.6213 3.64417 15.2707 2.68868 16.4992 2.22948C17.6349 1.80482 18.6891 2.05425 19.5779 2.89718C20.1357 3.42673 20.4416 4.09442 20.4917 4.87851C20.5507 5.80714 20.8803 6.12308 21.7842 6.12436C22.5651 6.12436 23.3474 6.13715 24.1283 6.11797C24.4191 6.11029 24.5307 6.16913 24.5207 6.49914C24.4944 7.328 24.5144 8.15686 24.5119 8.98572C24.5094 9.81842 24.1296 10.2111 23.3072 10.2137C21.3692 10.2188 19.4325 10.2149 17.4945 10.2149C15.6041 10.2149 13.7138 10.2149 11.8221 10.2149C10.8456 10.2149 10.5172 9.88493 10.5147 8.90642C10.5122 8.10953 10.5272 7.31265 10.5072 6.51577C10.4996 6.21518 10.5636 6.10518 10.8832 6.11541Z" fill="#414141"/>
<path d="M48.3396 33.5432C47.254 26.2574 40.0209 21.1717 32.9408 22.7156C25.9585 24.2377 21.5259 30.8839 22.7193 38.0444C23.5768 43.1953 27.5405 47.4727 32.5084 48.6379C33.0624 48.7684 33.6391 48.7812 34.1731 48.9999H36.7053C36.8808 48.8157 37.1127 48.9142 37.3158 48.8822C44.6416 47.731 49.4552 41.0375 48.3396 33.5445V33.5432ZM35.5294 46.9649C29.456 46.9649 24.5031 41.906 24.5119 35.7062C24.5207 29.5089 29.486 24.4769 35.5721 24.4999C41.6004 24.5217 46.5244 29.5677 46.5257 35.7254C46.5269 41.897 41.5703 46.9649 35.5294 46.9649Z" fill="#414141"/>
<path d="M7.90239 16.3401C7.74569 16.3401 7.589 16.3376 7.43356 16.3478C6.97476 16.3798 6.68268 16.6407 6.54604 17.0756C6.33544 17.751 6.84815 18.3701 7.62786 18.3714C10.9109 18.3752 14.1927 18.3726 17.4758 18.3726C20.6962 18.3726 23.9166 18.3726 27.1357 18.3726C28.0245 18.3726 28.4971 18.0298 28.5134 17.3724C28.5309 16.7034 28.0421 16.3389 27.127 16.3389C20.7175 16.3389 14.3093 16.3389 7.89988 16.3389L7.90239 16.3401Z" fill="#414141"/>
<path d="M21.314 22.4664C21.1887 22.4651 21.0633 22.4664 20.9392 22.4664C17.5158 22.4664 14.0923 22.4664 10.6701 22.4664C9.6384 22.4664 8.60673 22.4702 7.57505 22.4664C7.14508 22.4638 6.81414 22.6327 6.61608 23.0254C6.25505 23.7404 6.77152 24.4963 7.63021 24.4989C9.91293 24.5053 12.1944 24.5014 14.4771 24.5014C16.7599 24.5014 19.0413 24.5014 21.3241 24.5014C22.0386 24.5014 22.4987 24.11 22.515 23.5012C22.5313 22.8821 22.0599 22.4753 21.3166 22.4677L21.314 22.4664Z" fill="#414141"/>
<path d="M7.63277 30.623C10.8795 30.6281 14.1275 30.6268 17.3754 30.623C18.0461 30.623 18.4986 30.2124 18.5074 29.6176C18.5162 29.0088 18.0611 28.5943 17.3541 28.593C15.7458 28.5879 14.1375 28.5918 12.5304 28.5918C10.9071 28.5918 9.28246 28.5969 7.6591 28.5879C7.2191 28.5854 6.85557 28.7082 6.63118 29.1124C6.23255 29.8299 6.75278 30.6217 7.63277 30.623Z" fill="#414141"/>
<path d="M40.9261 30.7217C40.55 30.5401 40.1927 30.6053 39.8781 30.8727C39.7465 30.9839 39.6387 31.1234 39.5259 31.2551C37.6631 33.427 35.8015 35.599 33.9413 37.7709C33.627 38.1375 33.3065 38.1542 32.9798 37.8208C32.096 36.919 31.216 36.0121 30.326 35.1167C29.8271 34.614 29.2091 34.5859 28.7954 35.0272C28.3943 35.4544 28.4331 36.0645 28.9107 36.5544C30.1781 37.8553 31.4479 39.1536 32.724 40.4442C33.2643 40.9904 33.8435 40.975 34.3462 40.3905C36.6352 37.7325 38.9166 35.0656 41.2006 32.4025C41.3911 32.1799 41.5278 31.9356 41.5102 31.7092C41.4977 31.2014 41.2959 30.8995 40.9273 30.7217H40.9261Z" fill="#414141"/>
</g>
<defs>
<clipPath id="clip0_890_8811">
<rect width="48" height="49" fill="white" transform="translate(0.5)"/>
</clipPath>
</defs>
</svg>
